<?xml version="1.0" encoding="UTF-8"?>
<svg width="504" height="176" xmlns="http://www.w3.org/2000/svg" xmlns:svg="http://www.w3.org/2000/svg">
 <g>
  <title>Layer 1</title>
  <g id="svg_4"/>
  <g id="svg_9"/>
  <g id="svg_13"/>
  <g id="svg_14"/>
  <g id="svg_15"/>
  <g id="svg_19"/>
  <g id="svg_25"/>
  <g id="svg_26"/>
  <g id="svg_27"/>
  <g id="svg_28"/>
  <g id="svg_29"/>
  <g id="svg_30"/>
  <g id="svg_31"/>
  <g id="svg_32"/>
  <g id="svg_33"/>
  <g id="svg_34"/>
  <g id="svg_35"/>
  <g id="svg_36"/>
  <g id="svg_37"/>
  <g id="svg_38"/>
  <g id="svg_39"/>
  <g id="svg_40">
   <polygon points="43.2,43.6 60.8,43.6 52,21.2" fill="#2fabf7" id="svg_1"/>
   <path d="m261.600006,24.399994c-1.600006,-0.800003 -4,-0.800003 -6.399994,-0.800003l-16,0l0,12.800003l16,0c2.399994,0 4.799988,0 6.399994,-0.800003s2.399994,-3.199997 2.399994,-5.600006c0.799988,-3.199982 -0.799988,-4.799988 -2.399994,-5.599991z" fill="#228fe0" id="svg_2"/>
   <path d="m432.799988,0.399994l0,9.599991l-4.799988,-9.599991l-37.600006,0l0,9.599991l-4.800018,-9.599991l-51.199982,0c-8.800018,0 -16,1.599991 -22.399994,4.800003l0,-4.800003l-36,0l0,4.800003c-4,-3.200012 -8.800018,-4.800003 -15.200012,-4.800003l-128.799988,0l-8.800003,20l-8.799995,-20l-40.800003,0l0,9.599991l-4.799995,-9.599991l-34.400002,0l-16.000002,37.599991l-18.4,41.600021l18.4,0l22.4,0l4.799999,-12.800003l11.200001,0l4.799999,12.800003l46.400002,0l0,-9.600006l4,9.600006l23.199997,0l4,-9.600006l0,9.600006l111.199997,0l0,-20.800003l1.600006,0c1.600006,0 1.600006,0 1.600006,2.399994l0,17.600006l57.600006,0l0,-4.800003c4.799988,2.399994 12,4.800003 21.599976,4.800003l24,0l4.800018,-12.800003l11.199982,0l4.800018,12.800003l46.399994,0l0,-12l7.200012,12l37.599976,0l0,-78.400009l-36,0l0,0zm-270.399994,67.200012l-13.600006,0l0,-44l-19.199997,44l-12,0l-19.200005,-44l0,44l-27.199989,0l-5.599998,-12l-27.199997,0l-4.800003,12.800003l-15.199999,0l24.000002,-56.800003l20,0l22.400002,53.600006l0,-53.600006l21.599998,0l17.599998,38.399994l16,-38.399994l22.399994,0l0,56zm54.400009,-44l-31.199997,0l0,10.399994l30.399994,0l0,11.199997l-30.399994,0l0,11.199997l31.199997,0l0,12l-44.800003,0l0,-56.799988l44.800003,0l0,12zm59.999985,23.199997c1.600006,3.199997 2.399994,5.599991 2.399994,10.399994l0,11.199997l-13.600006,0l0,-7.199997c0,-3.199997 0,-8 -2.399994,-11.199997c-2.399994,-2.399994 -4.799988,-2.399994 -9.599991,-2.399994l-14.399994,0l0,20.799988l-13.600006,0l0,-56.799988l30.400009,0c7.200012,0 12,0 16,2.399994s6.399994,6.399994 6.399994,12.800003c0,8.800003 -5.600006,13.599991 -9.600006,15.199997c4,0.800003 6.400024,3.199997 8,4.800003zm24,20.800003l-13.600006,0l0,-56.800003l13.600006,0l0,56.800003zm157.600006,0l-19.200012,0l-25.600006,-42.400009l0,42.400009l-27.199982,0l-4.800018,-12l-28,0l-4.799988,12.800003l-15.200012,0c-6.399994,0 -14.399994,-1.600006 -19.199982,-6.399994c-4.800018,-4.800003 -7.200012,-11.200012 -7.200012,-21.600006c0,-8 1.600006,-16 7.200012,-22.399994c4,-4.800003 11.199982,-6.400009 20,-6.400009l12.799988,0l0,12l-12.799988,0c-4.800018,0 -7.200012,0.800003 -10.399994,3.199997c-2.400024,2.400009 -4,7.200012 -4,12.800003c0,6.400009 0.799988,10.400009 4,13.600006c2.399994,2.399994 5.599976,3.199997 9.599976,3.199997l5.600006,0l18.399994,-44l20,0l22.400024,53.599991l0,-53.600006l20,0l23.200012,39.200012l0,-39.200012l13.599976,0l0,55.200012l1.600006,0l0,0z" fill="#0571c1" id="svg_3"/>
   <polygon points="358.4,43.6 376.8,43.6 368,21.2" fill="#228fe0" id="svg_5"/>
   <polygon points="222.4,158.8 222.4,113.2 201.6,135.6" fill="#228fe0" id="svg_6"/>
   <polygon points="136.8,118.8 136.8,129.2 166.4,129.2 166.4,140.4 136.8,140.4 136.8,152.4 169.6,152.4 184.8,135.6 170.4,118.8" fill="#2fabf7" id="svg_7"/>
   <path d="m252.800003,118.799988l-16.800003,0l0,14.399994l17.600006,0c4.799988,0 8,-2.399994 8,-7.199982c-0.800018,-4.799988 -4,-7.200012 -8.800003,-7.200012z" fill="#228fe0" id="SVGCleanerId_0"/>
   <path d="m500,132.399994l0,-36l-9.600006,0l-24,0c-7.199982,0 -12.799988,1.600006 -16.799988,4.799988l0,-4.799988l-36.800018,0c-5.599976,0 -12.799988,1.600006 -16,4.799988l0,-4.799988l-64.799988,0l0,4.799988c-4.799988,-4 -13.600006,-4.799988 -17.600006,-4.799988l-43.199982,0l0,4.799988c-4,-4 -13.600006,-4.799988 -18.400009,-4.799988l-48,0l-11.199997,12l-10.400009,-12l-72,0l0,78.399994l70.400009,0l11.199997,-12l10.399994,12l43.199997,0l0,-18.399994l5.600006,0c5.600006,0 12.799988,0 18.399994,-2.399994l0,21.600006l36,0l0,-20.800018l1.600006,0c2.399994,0 2.399994,0 2.399994,2.400024l0,18.399994l108.800018,0c7.199982,0 14.399994,-1.600006 18.399994,-4.800018l0,4.800018l34.399994,0c7.200012,0 14.399994,-0.800018 19.200012,-4l0,0c8,-4.800018 12.799988,-13.600006 12.799988,-24c0,-5.600006 -1.600006,-11.200012 -4,-15.200012zm-248,12.800018l-16,0l0,19.200012l-25.600006,0l-16,-18.400024l-16.799988,18.400024l-52.800003,0l0,-56.800018l53.599991,0l16,18.399994l16.800003,-18.399994l42.400009,0c10.399994,0 22.399994,3.200012 22.399994,18.399994c-0.799988,16 -12,19.200012 -24,19.200012zm80,-3.200012c1.600006,2.399994 2.399994,5.600006 2.399994,10.399994l0,11.200012l-13.600006,0l0,-7.200012c0,-3.199982 0,-8.799988 -2.399994,-11.199982c-1.600006,-2.400024 -4.799988,-2.400024 -9.600006,-2.400024l-14.399994,0l0,20.800018l-13.600006,0l0,-56.800018l30.400024,0c6.399994,0 12,0 16,2.400024s7.199982,6.399994 7.199982,12.799988c0,8.799988 -5.600006,13.600006 -9.600006,15.200012c4,1.599976 6.400024,3.199982 7.200012,4.799988zm55.200012,-23.200012l-31.200012,0l0,10.399994l30.399994,0l0,11.200012l-30.399994,0l0,11.199982l31.200012,0l0,12l-44.800018,0l0,-56.799988l44.800018,0l0,12zm33.599976,44.800018l-25.600006,0l0,-12l25.600006,0c2.399994,0 4,0 5.600006,-1.600006c0.799988,-0.799988 1.600006,-2.399994 1.600006,-4s-0.800018,-3.199982 -1.600006,-4c-0.800018,-0.799988 -2.399994,-1.599976 -4.800018,-1.599976c-12.799988,-0.800018 -28,0 -28,-17.600006c0,-8 4.800018,-16.800018 19.200012,-16.800018l26.399994,0l0,13.600006l-24.799988,0c-2.399994,0 -4,0 -5.600006,0.800018s-1.600006,2.399994 -1.600006,4c0,2.399994 1.600006,3.199982 3.200012,4s3.199982,0.799988 4.799988,0.799988l7.200012,0c7.199982,0 12,1.600006 15.199982,4.799988c2.400024,2.400024 4,6.400024 4,12c0.000031,12 -7.199982,17.600006 -20.799988,17.600006zm68.800018,-5.600006c-3.199982,3.200012 -8.799988,5.600006 -16.799988,5.600006l-25.600006,0l0,-12l25.600006,0c2.399994,0 4,0 5.600006,-1.600006c0.799988,-0.799988 1.599976,-2.399994 1.599976,-4s-0.799988,-3.200012 -1.599976,-4c-0.800018,-0.799988 -2.400024,-1.600006 -4.800018,-1.600006c-12.799988,-0.799988 -28,0 -28,-17.600006c0,-8 4.800018,-16.799988 19.200012,-16.799988l26.399994,0l0,13.600006l-24,0c-2.399994,0 -4,0 -5.600006,0.799988s-1.600006,2.399994 -1.600006,4c0,2.399994 0.800018,3.200012 3.200012,4c1.600006,0.800018 3.200012,0.800018 4.799988,0.800018l7.200012,0c7.200012,0 12,1.599976 15.200012,4.799988c0.799988,0 0.799988,0.799988 0.799988,0.799988c2.399994,3.200012 3.200012,7.200012 3.200012,11.200012c-0.000031,4.799988 -1.600037,8.799988 -4.800018,12z" fill="#0571c1" id="svg_8"/>
   <path d="m317.600006,120.399994c-1.600006,-0.800018 -4,-0.800018 -6.399994,-0.800018l-16,0l0,12.800018l16,0c2.399994,0 4.799988,0 6.399994,-0.800018s2.399994,-3.199982 2.399994,-5.599976c0.799988,-3.200012 -0.799988,-4.799988 -2.399994,-5.600006z" fill="#228fe0" id="SVGCleanerId_1"/>
   <path d="m261.600006,24.399994c-1.600006,-0.800003 -4,-0.800003 -6.399994,-0.800003l-16,0l0,12.800003l16,0c2.399994,0 4.799988,0 6.399994,-0.800003s2.399994,-3.199997 2.399994,-5.600006c0.799988,-3.199982 -0.799988,-4.799988 -2.399994,-5.599991z" fill="#228fe0" id="svg_10"/>
   <polygon points="358.4,43.6 376.8,43.6 368,21.2" fill="#228fe0" id="svg_11"/>
   <polygon points="222.4,158.8 222.4,113.2 201.6,135.6" fill="#228fe0" id="svg_12"/>
   <path d="m252.800003,118.799988l-16.800003,0l0,14.399994l17.600006,0c4.799988,0 8,-2.399994 8,-7.199982c-0.800018,-4.799988 -4,-7.200012 -8.800003,-7.200012z" fill="#228fe0" id="SVGCleanerId_0_1_"/>
   <path d="m317.600006,120.399994c-1.600006,-0.800018 -4,-0.800018 -6.399994,-0.800018l-16,0l0,12.800018l16,0c2.399994,0 4.799988,0 6.399994,-0.800018s2.399994,-3.199982 2.399994,-5.599976c0.799988,-3.200012 -0.799988,-4.799988 -2.399994,-5.600006z" fill="#228fe0" id="SVGCleanerId_1_1_"/>
   <polygon points="247.2,162 236,150 236,163.6 209.6,163.6 193.6,145.2 176,163.6 123.2,163.6 123.2,107.6 176.8,107.6 193.6,126 201.6,116.4 181.6,96.4 111.2,96.4 111.2,174.8 181.6,174.8 193.6,162.8 204,174.8 247.2,174.8" fill="#2fabf7" id="svg_16"/>
   <polygon points="164,78.8 153.6,67.6 148.8,67.6 148.8,62.8 136.8,50.8 128.8,67.6 117.6,67.6 98.4,23.6 98.4,67.6 71.2,67.6 65.6,55.6 38.4,55.6 32.8,67.6 18.4,67.6 42.4,11.6 62.4,11.6 84.8,65.2 84.8,11.6 96.8,11.6 85.6,0.399994 73.6,0.399994 73.6,10 69.6,0.399994 34.4,0.399994 18.4,38 0,78.8 18.4,78.8 41.6,78.8 46.4,66.8 57.6,66.8 63.2,78.8 108,78.8 108,69.2 112,78.8 135.2,78.8 139.2,69.2 139.2,78.8" fill="#2fabf7" id="svg_17"/>
   <polygon points="127.2,42 114.4,29.2 124,50" fill="#2fabf7" id="svg_18"/>
   <path d="m491.200012,170.799988c7.200012,-4.799988 12,-12.799988 12.799988,-21.600006l-11.200012,-11.199982c0.799988,2.399994 1.600006,4.799988 1.600006,8c0,4.799988 -1.600006,8.799988 -4.800018,12c-3.199982,3.200012 -8.799988,5.600006 -16.799988,5.600006l-25.600006,0l0,-12l25.600006,0c2.399994,0 4,0 5.600006,-1.600006c0.799988,-0.799988 1.600006,-2.399994 1.600006,-4s-0.800018,-3.200012 -1.600006,-4c-0.800018,-0.799988 -2.399994,-1.600006 -4.800018,-1.600006c-12.799988,-0.799988 -28,0 -28,-17.600006c0,-8 4.800018,-15.199982 16.800018,-16.799988l-8.800018,-8.799988c-1.599976,0.799988 -2.399994,1.599976 -3.199982,1.599976l0,-4.799988l-36.800018,0c-5.599976,0 -12.799988,1.600006 -16,4.799988l0,-4.799988l-65.599976,0l0,4.799988c-4.799988,-4 -13.600006,-4.799988 -17.600006,-4.799988l-43.199982,0l0,4.799988c-4,-4 -13.600006,-4.799988 -18.400009,-4.799988l-48,0l-11.199997,12l-10.400009,-12l-8.800003,0l24,24l12,-12.799988l42.400009,0c10.400009,0 22.400009,3.199982 22.400009,18.399994c0,16 -11.200012,19.199982 -23.200012,19.199982l-16,0l0,12l12,12l0,-12l4,0c5.600006,0 12.799988,0 18.399994,-2.399994l0,21.600006l36,0l0,-20.799988l1.600006,0c2.399994,0 2.399994,0 2.399994,2.399994l0,18.399994l108.800018,0c7.199982,0 14.399994,-1.600006 18.399994,-4.799988l0,4.799988l34.399994,0c6.399994,0.799988 13.600006,0 19.200012,-3.200012l0,0zm-159.200012,-28.799988c1.600006,2.399994 2.399994,5.600006 2.399994,10.399994l0,11.200012l-13.600006,0l0,-7.200012c0,-3.199982 0,-8.799988 -2.399994,-11.199982c-1.600006,-2.400024 -4.799988,-2.400024 -9.600006,-2.400024l-14.399994,0l0,20.800018l-13.600006,0l0,-56.800018l30.400024,0c6.399994,0 12,0 16,2.400024s7.199982,6.399994 7.199982,12.799988c0,8.799988 -5.600006,13.600006 -9.600006,15.200012c4,1.599976 6.400024,3.199982 7.200012,4.799988zm55.200012,-23.200012l-31.200012,0l0,10.399994l30.399994,0l0,11.200012l-30.399994,0l0,11.199982l31.200012,0l0,12l-44.800018,0l0,-56.799988l44.800018,0l0,12zm33.599976,44.800018l-25.600006,0l0,-12l25.600006,0c2.399994,0 4,0 5.600006,-1.600006c0.799988,-0.799988 1.600006,-2.399994 1.600006,-4s-0.800018,-3.199982 -1.600006,-4c-0.800018,-0.799988 -2.399994,-1.599976 -4.800018,-1.599976c-12.799988,-0.800018 -28,0 -28,-17.600006c0,-8 4.800018,-16.800018 19.200012,-16.800018l26.399994,0l0,13.600006l-24.799988,0c-2.399994,0 -4,0 -5.600006,0.800018s-1.600006,2.399994 -1.600006,4c0,2.399994 1.600006,3.199982 3.200012,4s3.199982,0.799988 4.799988,0.799988l7.200012,0c7.199982,0 12,1.600006 15.199982,4.799988c2.400024,2.400024 4,6.400024 4,12c0.000031,12 -7.199982,17.600006 -20.799988,17.600006z" fill="#228fe0" id="svg_20"/>
   <path d="m459.200012,124.399994c0,2.399994 0.799988,3.199982 3.200012,4c1.599976,0.799988 3.199982,0.799988 4.799988,0.799988l7.200012,0c4.799988,0 8,0.800018 11.199982,2.399994l-12,-12l-7.199982,0c-2.400024,0 -4,0 -5.600006,0.800018c-0.800018,0.800018 -1.600006,2.399994 -1.600006,4z" fill="#228fe0" id="svg_21"/>
   <polygon points="431.2,76.4 432.8,78.8 433.6,78.8" fill="#228fe0" id="svg_22"/>
   <polygon points="387.2,32.4 400.8,65.2 400.8,46" fill="#228fe0" id="svg_23"/>
   <path d="m250.399994,58.800003l1.599991,0c1.600006,0 1.600006,0 1.600006,2.399994l0,17.600006l57.599991,0l0,-4.800003c4.800018,2.399994 12,4.800003 21.600006,4.800003l24,0l4.799988,-12.800003l11.200012,0l4.799988,12.800003l46.400024,0l0,-8l-11.200012,-11.199997l0,8.799988l-27.199982,0l-4,-12.799988l-28,0l-4.800018,12.799988l-15.199982,0c-6.399994,0 -14.399994,-1.599991 -19.200012,-6.399994c-4.799988,-4.800003 -7.199982,-11.199997 -7.199982,-21.600006c0,-8 1.599976,-16 7.199982,-22.399994c4,-4.800003 11.200012,-6.399994 20,-6.399994l12.800018,0l0,12l-12.800018,0c-4.799988,0 -7.199982,0.799988 -10.399994,3.199997c-2.399994,2.399994 -4,7.199997 -4,12.800003c0,6.399994 0.799988,10.399994 4,13.599991c2.399994,2.400009 5.600006,3.199997 9.600006,3.199997l5.600006,0l18.399994,-44l8,0l-11.200012,-11.199997l-20.799988,0c-8.800018,0 -16,1.600006 -22.399994,4.800003l0,-4.800003l-35.200012,0l0,4.800003c-4,-3.199997 -8.799988,-4.800003 -15.200012,-4.800003l-128.799988,0l-8.800003,20l-8.799995,-20l-35.200005,0l11.200005,11.199997l16,0l13.599998,29.600006l4.800003,4.800003l14.399994,-35.199997l22.400009,0l0,56.799988l-13.600006,0l0,-44l-13.600006,32l23.200012,23.200012l92,0l0.799988,-20.800003zm36.800018,-47.199997l13.600006,0l0,56.800003l-13.600006,0l0,-56.800003zm-70.400009,12l-31.199997,0l0,10.399994l30.399994,0l0,11.199997l-30.399994,0l0,11.199997l31.199997,0l0,12l-44.800003,0l0,-56.799988l44.800003,0l0,12zm22.399994,44l-13.599991,0l0,-56.800003l30.399994,0c7.200012,0 12,0 16,2.400009s6.399994,6.399994 6.399994,12.800003c0,8.799988 -5.600006,13.599991 -9.600006,15.199997c3.200012,0.800003 5.600006,3.199997 6.400024,4.800003c1.599976,3.199997 2.399994,5.599991 2.399994,10.399994l0,11.199997l-13.600006,0l0,-7.199997c0,-3.199997 0,-8 -2.399994,-11.199997c-0.800018,-1.600006 -3.200012,-1.600006 -8,-1.600006l-14.400009,0l0,20l0,0z" fill="#228fe0" id="svg_24"/>
  </g>
 </g>
</svg>