<svg id="Capa_1" data-name="Capa 1" xmlns="http://www.w3.org/2000/svg" viewBox="0 0 360.43 349.28"><defs><style>.cls-1{fill:#4098d4;}.cls-2{fill:#fbcb44;}.cls-3{fill:#e7b118;}.cls-4{fill:#287eb9;}.cls-5{fill:#e9731a;}.cls-6{fill:#c45117;}.cls-7{fill:#fff;}.cls-8{fill:#50504f;}.cls-9{fill:#676767;}.cls-10{fill:#f4b074;}.cls-11{fill:#e69b5d;}.cls-12{fill:#343434;}.cls-13{fill:#f2f1f4;}.cls-14{fill:#8e8e8e;}.cls-15{fill:#f9c38a;}.cls-16{fill:#582a1a;}.cls-17{fill:#e2995d;}.cls-18{fill:#d45337;}.cls-19{fill:#f1851d;}.cls-20{fill:#dd6d10;}.cls-21{fill:#9a9999;}.cls-22{fill:#f49724;}.cls-23{fill:#cdcccc;}</style></defs><title>188</title><path class="cls-1" d="M342,185.15c-14.52,70.9-115.82,107.16-204,122.07C56.9,320.92,14.33,229.27,41,122,67.46,15.27,114-2.11,179.74,3.74,255.47,10.49,353.88,127.08,342,185.15Z"/><path class="cls-1" d="M34.22,199.93S28.27,124,45.08,61C58,12.66,76.72,27.58,75.83,31.75c-4.34,9.46-16.52,15.63-29.39,70.38C33.65,156.56,34.22,199.93,34.22,199.93Z"/><path class="cls-1" d="M236.37,26.08s55.39,30.38,104.57,92.09c31.19,39.14,6.66,45.05,3.87,41.83-4.19-9.45-1.51-22.27-37.56-65.43C271.4,51.66,236.37,26.08,236.37,26.08Z"/><path class="cls-2" d="M309.43,307.27c0,9.83-64.3,17.8-143.63,17.8s-143.63-8-143.63-17.8,64.3-17.79,143.63-17.79S309.43,297.45,309.43,307.27Z"/><path class="cls-2" d="M330.66,291.11c0,6-30.22,10.8-67.49,10.8s-67.49-4.84-67.49-10.8,30.21-10.8,67.49-10.8S330.66,285.14,330.66,291.11Z"/><path class="cls-2" d="M223.27,291.79c0,6-30.22,10.8-67.49,10.8s-67.49-4.84-67.49-10.8S118.51,281,155.78,281,223.27,285.82,223.27,291.79Z"/><path class="cls-2" d="M263.17,322.42c0,6-30.22,10.81-67.49,10.81s-67.49-4.84-67.49-10.81,30.21-10.8,67.49-10.8S263.17,316.46,263.17,322.42Z"/><path class="cls-2" d="M155.78,328.35c0,3.27-12.26,5.93-27.37,5.93S101,331.62,101,328.35s12.26-5.93,27.38-5.93S155.78,325.08,155.78,328.35Z"/><path class="cls-2" d="M139.44,297.19c0,5.57-30.65,10.08-68.46,10.08S2.53,302.76,2.53,297.19,33.18,287.11,71,287.11,139.44,291.63,139.44,297.19Z"/><path class="cls-3" d="M284.28,303.78c0,4.27-17.6,7.73-39.3,7.73s-39.3-3.46-39.3-7.73S223.27,296,245,296,284.28,299.5,284.28,303.78Z"/><path class="cls-3" d="M163,301.88c0,4.75-21.59,8.6-48.22,8.6s-48.22-3.85-48.22-8.6,21.59-8.59,48.22-8.59S163,297.14,163,301.88Z"/><path class="cls-3" d="M298.15,341.49c0,2.33-11.13,4.23-24.85,4.23s-24.86-1.9-24.86-4.23,11.13-4.24,24.86-4.24S298.15,339.15,298.15,341.49Z"/><path class="cls-3" d="M293,334.93c0,2.29-11.12,4.14-24.85,4.14s-24.86-1.85-24.86-4.14,11.13-4.14,24.86-4.14S293,332.65,293,334.93Z"/><path class="cls-1" d="M287.2,322.33a1.84,1.84,0,0,0-1.84-1.87l-6.83-.06a1.86,1.86,0,0,0-1.88,1.84s0,1.21,0,1.61c0,.78-.73,1.26-1.77,1.27-.21,0-6.51-.39-7.72-.4-1.83,0-7.29.28-7.29.28-1.08,0-1.8-.51-1.81-1.31,0-.4,0-1.61,0-1.61a1.85,1.85,0,0,0-1.84-1.87l-6.83-.06a1.86,1.86,0,0,0-1.88,1.84l0,5.21,39.69.14Z"/><path class="cls-4" d="M249.27,334.11l6.83.06a1.86,1.86,0,0,0,1.87-1.85s0-.95,0-1.27a1.63,1.63,0,0,1,1.83-1.61s5.52.3,7.37.32,6.92-.16,7.62-.19a1.65,1.65,0,0,1,1.77,1.64c0,.32,0,1.27,0,1.27a1.86,1.86,0,0,0,1.84,1.88l6.83.06a1.87,1.87,0,0,0,1.88-1.85l0-5.23-39.69-.14-.05,5A1.87,1.87,0,0,0,249.27,334.11Z"/><path class="cls-1" d="M293.16,328.28a1.86,1.86,0,0,0-1.84-1.88l-6.83-.06a1.87,1.87,0,0,0-1.88,1.85s0,1.2,0,1.6c0,.78-.73,1.27-1.78,1.28-.2,0-6.5-.4-7.71-.41-1.83,0-7.29.28-7.29.28-1.08,0-1.8-.51-1.81-1.31,0-.4,0-1.6,0-1.6a1.86,1.86,0,0,0-1.84-1.88l-6.83-.06a1.87,1.87,0,0,0-1.88,1.85l0,5.2,39.69.14Z"/><path class="cls-4" d="M255.23,340.05l6.83.06a1.86,1.86,0,0,0,1.87-1.84s0-1,0-1.28a1.65,1.65,0,0,1,1.84-1.61s5.52.31,7.37.32,6.92-.16,7.62-.19a1.63,1.63,0,0,1,1.76,1.64c0,.32,0,1.27,0,1.27a1.87,1.87,0,0,0,1.85,1.88l6.83.06a1.86,1.86,0,0,0,1.87-1.85l.05-5.23-39.69-.14-.05,5A1.86,1.86,0,0,0,255.23,340.05Z"/><path class="cls-3" d="M144.61,341.79c0,2.34-11.12,4.23-24.85,4.23s-24.86-1.89-24.86-4.23,11.13-4.24,24.86-4.24S144.61,339.45,144.61,341.79Z"/><path class="cls-5" d="M139.63,328.76a1.87,1.87,0,0,0-1.85-1.87l-6.83-.06a1.86,1.86,0,0,0-1.87,1.85s0,1.2,0,1.6c0,.78-.73,1.26-1.77,1.28-.21,0-6.51-.4-7.71-.41-1.84,0-7.3.28-7.3.28-1.08,0-1.8-.51-1.81-1.31,0-.4,0-1.6,0-1.6a1.87,1.87,0,0,0-1.85-1.88l-6.83-.06a1.85,1.85,0,0,0-1.87,1.84l0,5.21,39.69.14Z"/><path class="cls-6" d="M101.69,340.54l6.83.06a1.87,1.87,0,0,0,1.88-1.85s0-.95,0-1.27a1.65,1.65,0,0,1,1.84-1.61s5.51.31,7.36.32,6.92-.16,7.62-.19a1.64,1.64,0,0,1,1.77,1.64c0,.32,0,1.27,0,1.27a1.86,1.86,0,0,0,1.84,1.88l6.83.06a1.87,1.87,0,0,0,1.88-1.85l0-5.23-39.69-.14,0,5A1.86,1.86,0,0,0,101.69,340.54Z"/><path class="cls-4" d="M307.08,285.19l-4.59-13.78H273v4.31H188.12l2-10.24,12.53-65.6h50.31a3.93,3.93,0,0,0,3.94-3.94v-1a3.94,3.94,0,0,0-3.94-3.94H190.1v-1.64H185l-25.14-22.7-5.49,6.09,9.73,8.79-7.82,7.82H154.1a3.94,3.94,0,0,0-3.94,3.94v4.19a3.93,3.93,0,0,0,3.94,3.93h36v-1.56H193l-12.78,63.47c-8.94-1-17.16-1.81-26.39-.63-1.73.22-3.45.65-4.27,3.88a133,133,0,0,0-2.29,14.66,3.93,3.93,0,0,0,3.93,3.93h12.56v2.9a1.67,1.67,0,0,0,1.67,1.67h3.13a1.68,1.68,0,0,0,1.68-1.67v-2.9h12.22v0h95.15v0H287.8v2.9a1.67,1.67,0,0,0,1.67,1.67h3.13a1.67,1.67,0,0,0,1.67-1.67v-2.9Zm-141-101.86,6.69,6H160Z"/><path class="cls-4" d="M106.79,281.16a4.28,4.28,0,0,0-3.31,1.59H83.91a7.2,7.2,0,0,0,3.77-2A24.62,24.62,0,0,0,95.23,262,22,22,0,0,0,92,251.47l11-54.25,1.52.32,2.64-12.63-1.59-.33,1.8-8.86,1.36.25,1.49-8a2.49,2.49,0,0,0-.27-1.62l9.77-9.61L116.1,153l-11.63,11.43a2.45,2.45,0,0,0-2.36,2l-1.48,8,1.14.21-.37,1.86L98,175.87l6.11-34.4a2.45,2.45,0,0,0-2-2.85l-.46-.08a2.46,2.46,0,0,0-2.85,2L92.21,177.8a2.47,2.47,0,0,0,2,2.85l.45.08a2.43,2.43,0,0,0,2.3-.84l3.62.7-.57,2.82-1.22-.25-2.63,12.62,1.28.27L87.28,245.93a27.54,27.54,0,0,0-34.46-.5l-9.59-25.14-1,.39-9.08-23.5,8.79.07a3.68,3.68,0,0,0,0-7.36l-25.18-.21a3.69,3.69,0,0,0,0,7.37l10.23.08,9.88,25.59-1.08.42L47,252.43a21.94,21.94,0,0,0-2.68,9.6c-.31,7.21,2,13.89,7,18.42a8.46,8.46,0,0,0,4.68,2.3H32.33A4.29,4.29,0,1,0,32.5,288h70.81a4.3,4.3,0,1,0,3.48-6.81Z"/><path class="cls-7" d="M228.66,72.73a.47.47,0,0,1-.09-.93c.45-.09.91-.19,1.36-.3a.47.47,0,1,1,.21.92l-1.38.3Z"/><path class="cls-7" d="M217.37,74a.47.47,0,0,1,0-.94c.92,0,1.87,0,2.81-.09a.47.47,0,0,1,.5.45.46.46,0,0,1-.44.49C219.27,73.94,218.31,74,217.37,74Zm-2.84-.09h0c-1-.06-1.94-.16-2.87-.3a.47.47,0,0,1,.14-.93c.9.14,1.84.23,2.79.3a.47.47,0,0,1,0,.94Zm8.52-.24a.47.47,0,0,1-.06-.94c.92-.1,1.86-.23,2.8-.39a.48.48,0,0,1,.54.39.47.47,0,0,1-.39.54c-1,.16-1.91.29-2.84.39Zm-14.14-.59-.11,0c-1-.23-1.89-.5-2.78-.81a.46.46,0,0,1-.28-.6.46.46,0,0,1,.59-.28,27.16,27.16,0,0,0,2.69.78.46.46,0,0,1,.34.56A.47.47,0,0,1,208.91,73.05Zm-5.35-1.9a.54.54,0,0,1-.21-.05,19.9,19.9,0,0,1-2.51-1.47.47.47,0,0,1-.12-.65.46.46,0,0,1,.65-.12,19.35,19.35,0,0,0,2.4,1.4.47.47,0,0,1-.21.89Zm-4.65-3.23a.46.46,0,0,1-.33-.13,16,16,0,0,1-1.91-2.22.47.47,0,0,1,.11-.65.48.48,0,0,1,.66.11,14.06,14.06,0,0,0,1.79,2.08.47.47,0,0,1-.32.81Zm-3.27-4.61a.47.47,0,0,1-.42-.28,14.82,14.82,0,0,1-.94-2.77.47.47,0,0,1,.35-.57.46.46,0,0,1,.56.35,15.4,15.4,0,0,0,.88,2.61.47.47,0,0,1-.23.62A.71.71,0,0,1,195.64,63.31Zm18.56-4.84a11.56,11.56,0,0,1-2.11-.18.47.47,0,0,1-.39-.53.48.48,0,0,1,.54-.4,12.55,12.55,0,0,0,1.95.17h0c.27,0,.52,0,.76,0a.46.46,0,0,1,.51.42.47.47,0,0,1-.43.51C214.77,58.45,214.49,58.47,214.2,58.47Zm-19.86-.66a.48.48,0,0,1-.47-.45c0-.31,0-.63,0-1q0-.75.06-1.53c0-.15,0-.3.05-.45a.48.48,0,0,1,.53-.4.49.49,0,0,1,.4.53c0,.13,0,.26,0,.39a14.49,14.49,0,0,0-.06,1.46c0,.31,0,.61,0,.9a.48.48,0,0,1-.44.5Zm15.08-.21a.51.51,0,0,1-.17,0,9.75,9.75,0,0,1-2.61-1.43.47.47,0,1,1,.58-.74,8.75,8.75,0,0,0,2.36,1.29.48.48,0,0,1,.28.61A.47.47,0,0,1,209.42,57.6Zm8.27,0a.46.46,0,0,1-.25-.86,3.6,3.6,0,0,0,1.5-2,.47.47,0,0,1,.89.29,4.44,4.44,0,0,1-1.89,2.46A.43.43,0,0,1,217.69,57.6Zm-12.6-3.49a.46.46,0,0,1-.41-.24,8.64,8.64,0,0,1-1-2.83.47.47,0,0,1,.93-.16,7.75,7.75,0,0,0,.87,2.52.47.47,0,0,1-.17.64A.43.43,0,0,1,205.09,54.11Zm14.46-1.53a.48.48,0,0,1-.47-.4,8.67,8.67,0,0,0-.84-2.55.47.47,0,1,1,.83-.42A9.52,9.52,0,0,1,220,52a.46.46,0,0,1-.39.53Zm-24.31-.33a.45.45,0,0,1-.2,0,.46.46,0,0,1-.23-.62,12.52,12.52,0,0,1,1.55-2.51A.48.48,0,0,1,197,49a.47.47,0,0,1,.08.66A11.87,11.87,0,0,0,195.66,52,.47.47,0,0,1,195.24,52.25ZM204,48.6h0a.47.47,0,0,1-.44-.5,18.63,18.63,0,0,1,.44-2.89.47.47,0,0,1,.56-.35.47.47,0,0,1,.36.56,15.75,15.75,0,0,0-.42,2.74A.48.48,0,0,1,204,48.6Zm-5.32-.8a.46.46,0,0,1-.36-.16.48.48,0,0,1,.06-.67,15.6,15.6,0,0,1,2.41-1.66.47.47,0,0,1,.64.18.48.48,0,0,1-.18.64A14.27,14.27,0,0,0,199,47.69.41.41,0,0,1,198.71,47.8Zm18.3-.22a.47.47,0,0,1-.33-.14,7.05,7.05,0,0,0-1.55-1.19c-.21-.12-.43-.24-.65-.34a.48.48,0,0,1-.21-.63.47.47,0,0,1,.63-.21q.34.16.69.36a7.61,7.61,0,0,1,1.75,1.35.47.47,0,0,1,0,.67A.46.46,0,0,1,217,47.58ZM203.65,45a.47.47,0,0,1-.45-.32.46.46,0,0,1,.3-.59,14.3,14.3,0,0,1,2.87-.63.47.47,0,1,1,.1.93,14,14,0,0,0-2.68.59A.34.34,0,0,1,203.65,45Zm8.4-.12-.13,0a14.11,14.11,0,0,0-2.7-.51.47.47,0,0,1-.43-.51.46.46,0,0,1,.51-.42,14.46,14.46,0,0,1,2.88.54.47.47,0,0,1,.32.58A.48.48,0,0,1,212.05,44.92Zm-6.78-1.86-.16,0a.48.48,0,0,1-.28-.61c.32-.89.7-1.78,1.12-2.66a.47.47,0,0,1,.63-.22.48.48,0,0,1,.22.63,26,26,0,0,0-1.09,2.57A.47.47,0,0,1,205.27,43.06Z"/><path class="cls-7" d="M207.79,37.86a.55.55,0,0,1-.25-.07.47.47,0,0,1-.15-.65q.42-.66.81-1.2a.47.47,0,0,1,.65-.1.47.47,0,0,1,.1.66c-.24.34-.5.72-.76,1.14A.49.49,0,0,1,207.79,37.86Z"/><path class="cls-7" d="M341.1,175.91a.5.5,0,0,1-.21,0c-.84-.42-1.68-.89-2.5-1.38a.47.47,0,1,1,.49-.81c.79.49,1.61.94,2.43,1.35a.48.48,0,0,1,.21.63A.49.49,0,0,1,341.1,175.91ZM336.29,173a.49.49,0,0,1-.28-.09c-.77-.56-1.52-1.15-2.24-1.77a.47.47,0,0,1,.61-.71c.7.59,1.44,1.17,2.18,1.72a.47.47,0,0,1-.27.85ZM332,169.34a.49.49,0,0,1-.33-.14c-.67-.67-1.32-1.37-1.94-2.09a.47.47,0,0,1,.72-.61c.6.7,1.23,1.38,1.89,2a.48.48,0,0,1,0,.67A.49.49,0,0,1,332,169.34Zm-3.66-4.28a.45.45,0,0,1-.38-.19c-.56-.77-1.1-1.56-1.59-2.37a.46.46,0,0,1,.15-.64.47.47,0,0,1,.65.15c.48.78,1,1.56,1.55,2.31a.46.46,0,0,1-.1.65A.43.43,0,0,1,328.34,165.06Zm-2.94-4.79A.47.47,0,0,1,325,160c-.41-.83-.8-1.7-1.15-2.61a.47.47,0,0,1,.88-.34c.34.88.71,1.73,1.11,2.54a.47.47,0,0,1-.21.63A.54.54,0,0,1,325.4,160.27Zm-2-5.24a.46.46,0,0,1-.45-.33c-.27-.87-.52-1.79-.75-2.74a.47.47,0,1,1,.91-.22c.23.93.47,1.84.73,2.69a.46.46,0,0,1-.31.58A.3.3,0,0,1,323.35,155ZM322,149.56a.46.46,0,0,1-.46-.38c-.18-.92-.34-1.85-.49-2.78a.46.46,0,0,1,.38-.54.47.47,0,0,1,.54.39c.15.92.31,1.84.49,2.76a.47.47,0,0,1-.37.55ZM321.1,144a.47.47,0,0,1-.47-.4l-.33-2.35-.06-.44a.47.47,0,0,1,.93-.13l.06.44.33,2.35a.47.47,0,0,1-.4.53Zm-.79-5.57a.46.46,0,0,1-.46-.4c-.14-.93-.29-1.86-.45-2.78a.47.47,0,0,1,.93-.16c.16.93.3,1.86.44,2.8a.47.47,0,0,1-.39.53Zm-1-5.55a.46.46,0,0,1-.45-.37c-.21-1-.42-1.86-.65-2.72a.46.46,0,0,1,.33-.57.47.47,0,0,1,.58.33c.23.88.45,1.78.66,2.76a.48.48,0,0,1-.37.56Zm-1.46-5.44a.48.48,0,0,1-.45-.31c-.3-.9-.64-1.77-1-2.59a.47.47,0,0,1,.86-.38c.37.85.72,1.74,1,2.66a.47.47,0,0,1-.29.6A.39.39,0,0,1,317.87,127.44Zm-2.26-5.14a.46.46,0,0,1-.41-.24c-.41-.74-.86-1.47-1.33-2.16l-.1-.14a.5.5,0,0,1,.1-.68.45.45,0,0,1,.64.09l0,0,.1.15c.49.72,1,1.47,1.38,2.23a.48.48,0,0,1-.19.64A.46.46,0,0,1,315.61,122.3ZM295,119.18a.47.47,0,0,1,0-.94,13.86,13.86,0,0,0,2.69-.39.47.47,0,0,1,.57.34.47.47,0,0,1-.34.57,14.41,14.41,0,0,1-2.88.42Zm-2.8-.24h-.1a7.39,7.39,0,0,1-2.75-1.17.47.47,0,1,1,.55-.76,6.65,6.65,0,0,0,2.4,1,.47.47,0,0,1,.36.56A.48.48,0,0,1,292.24,118.94Zm8.23-1.12a.45.45,0,0,1-.42-.26.47.47,0,0,1,.21-.63,11,11,0,0,0,2.27-1.45.46.46,0,0,1,.66,0,.47.47,0,0,1-.05.66,11.89,11.89,0,0,1-2.47,1.59A.45.45,0,0,1,300.47,117.82Zm11.91-.12a.48.48,0,0,1-.35-.16,25.76,25.76,0,0,0-1.94-2,.47.47,0,1,1,.63-.69,24.21,24.21,0,0,1,2,2,.45.45,0,0,1,0,.66A.47.47,0,0,1,312.38,117.7Zm-24.42-2a.48.48,0,0,1-.44-.3,6.07,6.07,0,0,1-.32-1.43,3.54,3.54,0,0,1,0-.45,4.17,4.17,0,0,1,.17-1.19.47.47,0,0,1,.9.28,3,3,0,0,0-.13.91c0,.11,0,.24,0,.36a4.59,4.59,0,0,0,.27,1.19.47.47,0,0,1-.27.6A.51.51,0,0,1,288,115.66Zm16.68-1.49a.39.39,0,0,1-.23-.07.46.46,0,0,1-.17-.64A6.07,6.07,0,0,0,305,111a.49.49,0,0,1,.52-.42.48.48,0,0,1,.42.52c0,.13,0,.26-.05.4a.24.24,0,0,1,.14.05,26.76,26.76,0,0,1,2.43,1.53.47.47,0,0,1-.55.77,24,24,0,0,0-2.23-1.43,7.07,7.07,0,0,1-.66,1.52A.49.49,0,0,1,304.64,114.17Zm-1.34-3a.39.39,0,0,1-.18,0,23.56,23.56,0,0,0-2.61-.88.47.47,0,1,1,.24-.9,21.37,21.37,0,0,1,2.73.92.47.47,0,0,1-.18.9Zm-13.69-.36a.49.49,0,0,1-.41-.24.46.46,0,0,1,.18-.64,9.2,9.2,0,0,1,2.79-1,.47.47,0,0,1,.55.37.48.48,0,0,1-.37.56,8.37,8.37,0,0,0-2.51.86A.39.39,0,0,1,289.61,110.84Zm8.26-1.09h-.06l-.45,0a16.62,16.62,0,0,0-2.29-.08.48.48,0,0,1-.48-.46.47.47,0,0,1,.46-.48,20.47,20.47,0,0,1,2.41.08l.47.06a.47.47,0,0,1-.06.93Zm7.38-1a.47.47,0,0,1-.45-.37,11.15,11.15,0,0,0-.91-2.53.47.47,0,1,1,.83-.43,11.51,11.51,0,0,1,1,2.75.47.47,0,0,1-.35.57Zm-37.74-4.36a.47.47,0,0,1-.14-.92l2.71-.82a.47.47,0,1,1,.26.9l-2.69.82Zm35.17-.56a.46.46,0,0,1-.34-.15,9.91,9.91,0,0,0-2.11-1.64.47.47,0,0,1-.17-.64.46.46,0,0,1,.64-.17A11,11,0,0,1,303,103a.48.48,0,0,1-.34.8Zm-29.76-1a.47.47,0,0,1-.13-.93c.88-.24,1.79-.48,2.74-.71a.47.47,0,0,1,.57.34.47.47,0,0,1-.34.57c-.95.23-1.85.47-2.72.71Zm5.47-1.35a.47.47,0,0,1-.1-.93c.91-.2,1.84-.39,2.78-.56a.49.49,0,0,1,.55.38.48.48,0,0,1-.38.55c-.93.17-1.85.35-2.75.55Zm19.51-.49a.39.39,0,0,1-.15,0,18.16,18.16,0,0,0-2.66-.65.47.47,0,1,1,.15-.92,18.51,18.51,0,0,1,2.8.68.47.47,0,0,1-.14.91Zm-14-.51a.47.47,0,0,1-.06-.94c1-.13,1.92-.24,2.82-.32a.47.47,0,1,1,.09.93c-.9.08-1.83.19-2.78.32Zm8.43-.45h0c-.91,0-1.84-.06-2.78,0a.46.46,0,0,1-.48-.46.47.47,0,0,1,.46-.48c1,0,1.92,0,2.85,0a.46.46,0,0,1,.44.49A.47.47,0,0,1,292.36,100Z"/><path class="cls-7" d="M329.16,217h0l-2.82,0a.48.48,0,0,1-.46-.48.45.45,0,0,1,.48-.46l2.81,0a.48.48,0,0,1,.47.48A.47.47,0,0,1,329.16,217Zm-5.64-.12h0l-2.83-.12a.47.47,0,0,1-.44-.49.44.44,0,0,1,.49-.45l2.81.12a.47.47,0,0,1,0,.94Zm-5.62-.29h0q-1.41-.1-2.82-.24a.47.47,0,0,1-.42-.51.49.49,0,0,1,.52-.42c.93.09,1.86.17,2.79.23a.48.48,0,0,1,.44.5A.48.48,0,0,1,317.9,216.56Zm-5.61-.55h-.06c-.94-.12-1.87-.26-2.81-.41a.47.47,0,0,1,.16-.92c.91.15,1.84.28,2.77.4a.45.45,0,0,1,.4.52A.46.46,0,0,1,312.29,216Zm-5.56-.91h-.1c-.94-.19-1.87-.4-2.77-.62a.48.48,0,0,1-.34-.57.46.46,0,0,1,.57-.34c.88.22,1.8.43,2.73.61a.48.48,0,0,1,.37.56A.47.47,0,0,1,306.73,215.1Zm-5.46-1.38a.32.32,0,0,1-.14,0c-.92-.28-1.82-.59-2.69-.91a.47.47,0,1,1,.32-.88c.86.32,1.75.62,2.64.9a.45.45,0,0,1,.31.58A.46.46,0,0,1,301.27,213.72Zm-5.28-2a.43.43,0,0,1-.19,0c-.87-.39-1.73-.82-2.55-1.27a.47.47,0,1,1,.45-.82c.8.43,1.63.85,2.49,1.24a.47.47,0,0,1,.23.62A.47.47,0,0,1,296,211.74Zm-4.93-2.7a.48.48,0,0,1-.26-.07c-.8-.53-1.58-1.09-2.31-1.67a.47.47,0,1,1,.58-.74c.71.56,1.47,1.11,2.25,1.62a.48.48,0,0,1,.13.65A.46.46,0,0,1,291.06,209Zm-4.41-3.49a.45.45,0,0,1-.32-.13c-.43-.41-.86-.84-1.27-1.28-.24-.26-.47-.53-.7-.82a.47.47,0,1,1,.74-.58c.21.26.43.52.65.76.4.43.81.84,1.23,1.24a.47.47,0,0,1-.33.81Zm-3.46-4.4a.46.46,0,0,1-.41-.25,18.48,18.48,0,0,1-1.16-2.65.46.46,0,1,1,.88-.3,18.09,18.09,0,0,0,1.11,2.5.48.48,0,0,1-.2.64A.43.43,0,0,1,283.19,201.15Zm-1.85-5.3a.47.47,0,0,1-.46-.39,15.7,15.7,0,0,1-.25-2.78v-.1a.47.47,0,1,1,.94,0v.1a14.85,14.85,0,0,0,.24,2.62.48.48,0,0,1-.38.54Zm.1-5.59-.12,0a.47.47,0,0,1-.34-.57,9.22,9.22,0,0,1,1.15-2.72.47.47,0,0,1,.79.5,8.4,8.4,0,0,0-1,2.45A.47.47,0,0,1,281.44,190.26Zm16-3.33a.52.52,0,0,1-.29-.09,19.24,19.24,0,0,0-2.29-1.52.46.46,0,0,1-.18-.63.47.47,0,0,1,.64-.19,22,22,0,0,1,2.4,1.59.47.47,0,0,1,.09.66A.46.46,0,0,1,297.46,186.93Zm-13-1.3a.45.45,0,0,1-.38-.19.48.48,0,0,1,.1-.66,8.69,8.69,0,0,1,2.67-1.28.45.45,0,0,1,.58.31.48.48,0,0,1-.32.59,8,8,0,0,0-2.38,1.14A.44.44,0,0,1,284.44,185.63Zm8.08-1.33-.13,0a8.81,8.81,0,0,0-2.64-.32.43.43,0,0,1-.49-.45.46.46,0,0,1,.45-.48,9.16,9.16,0,0,1,2.93.35.46.46,0,0,1,.33.57A.48.48,0,0,1,292.52,184.3Z"/><path class="cls-7" d="M135.45,74a.47.47,0,0,1-.38-.75l1.53-2.06.15-.2a.48.48,0,0,1,.66-.1.47.47,0,0,1,.09.66l-.15.2-1.53,2.06A.47.47,0,0,1,135.45,74Zm3.36-4.52a.47.47,0,0,1-.28-.09.48.48,0,0,1-.1-.66c.55-.75,1.1-1.5,1.65-2.27a.48.48,0,0,1,.66-.11.45.45,0,0,1,.1.65c-.55.77-1.1,1.54-1.66,2.29A.47.47,0,0,1,138.81,69.48Zm3.27-4.59a.43.43,0,0,1-.27-.08.47.47,0,0,1-.12-.65c.52-.77,1-1.55,1.54-2.34a.47.47,0,1,1,.79.5c-.5.8-1,1.59-1.56,2.37A.46.46,0,0,1,142.08,64.89Zm3-4.76a.53.53,0,0,1-.24-.06.47.47,0,0,1-.17-.64c.48-.84.93-1.66,1.34-2.46a.47.47,0,0,1,.63-.2.48.48,0,0,1,.21.63c-.42.81-.88,1.65-1.36,2.5A.48.48,0,0,1,145.09,60.13Zm2.55-5a.39.39,0,0,1-.18,0,.47.47,0,0,1-.25-.62c.38-.87.72-1.74,1-2.59a.47.47,0,0,1,.59-.29.46.46,0,0,1,.29.6c-.3.87-.65,1.76-1,2.66A.47.47,0,0,1,147.64,55.11Zm1.84-5.32-.12,0a.47.47,0,0,1-.34-.57,24,24,0,0,0,.53-2.71.48.48,0,0,1,.53-.4.47.47,0,0,1,.4.53,28.42,28.42,0,0,1-.55,2.81A.46.46,0,0,1,149.48,49.79Zm-7.71-1.86-1.45,0a.47.47,0,0,1-.45-.49.46.46,0,0,1,.49-.45c.95,0,1.89,0,2.78,0a.46.46,0,0,1,.48.45.47.47,0,0,1-.45.49C142.72,47.92,142.25,47.93,141.77,47.93Zm-4.24-.25h-.06a27.18,27.18,0,0,1-2.82-.47.47.47,0,1,1,.2-.91c.87.18,1.79.34,2.73.45a.47.47,0,0,1-.05.94Zm8.43,0a.47.47,0,0,1-.47-.41.48.48,0,0,1,.41-.53l.21,0c.87-.12,1.72-.27,2.52-.44a.47.47,0,1,1,.2.91c-.83.18-1.7.34-2.58.46l-.23,0ZM132,46.48l-.15,0a19,19,0,0,1-2.66-1.11.47.47,0,1,1,.43-.83,18.3,18.3,0,0,0,2.53,1.05.47.47,0,0,1,.3.6A.48.48,0,0,1,132,46.48Zm19.42,0a.47.47,0,0,1-.45-.32.48.48,0,0,1,.31-.59,24.49,24.49,0,0,0,2.57-1,.47.47,0,0,1,.62.23.47.47,0,0,1-.23.63,27.36,27.36,0,0,1-2.67,1A.39.39,0,0,1,151.45,46.45Zm-1.19-2.22h0a.48.48,0,0,1-.46-.49c0-.23,0-.45,0-.68s0-.55,0-.83,0-.82-.09-1.24a.48.48,0,0,1,.42-.52.49.49,0,0,1,.52.42c0,.44.07.88.09,1.31s0,.57,0,.86,0,.47,0,.71A.48.48,0,0,1,150.26,44.23Zm6.29-.12a.47.47,0,0,1-.25-.87,17.27,17.27,0,0,0,2.21-1.63.48.48,0,0,1,.66,0,.47.47,0,0,1,0,.67A18.22,18.22,0,0,1,156.8,44,.44.44,0,0,1,156.55,44.11Zm-29.49-.23a.46.46,0,0,1-.29-.1,10.89,10.89,0,0,1-2-2.11.47.47,0,0,1,.1-.66.48.48,0,0,1,.66.11A9.89,9.89,0,0,0,127.36,43a.47.47,0,0,1,.07.66A.46.46,0,0,1,127.06,43.88Zm33.74-3.43a.42.42,0,0,1-.3-.12.46.46,0,0,1-.06-.66,17.62,17.62,0,0,0,1.6-2.22.47.47,0,0,1,.64-.16.46.46,0,0,1,.16.65,19.53,19.53,0,0,1-1.68,2.34A.49.49,0,0,1,160.8,40.45Zm-37-1.08a.48.48,0,0,1-.45-.32,10.27,10.27,0,0,1-.5-2.8l.46-.11.47,0-.47,0,.48,0a9.54,9.54,0,0,0,.45,2.59.47.47,0,0,1-.29.6Zm25.85-.73a.47.47,0,0,1-.45-.36,21.66,21.66,0,0,0-.82-2.63.47.47,0,0,1,.26-.61.47.47,0,0,1,.61.27,21.91,21.91,0,0,1,.86,2.75.46.46,0,0,1-.35.56Zm14-3a.58.58,0,0,1-.19,0,.47.47,0,0,1-.25-.61,21.08,21.08,0,0,0,.9-2.61.47.47,0,0,1,.91.25,22.9,22.9,0,0,1-.94,2.72A.48.48,0,0,1,163.72,35.66Zm-40.06-1.84h-.12a.49.49,0,0,1-.34-.58,10.48,10.48,0,0,1,1.14-2.7.48.48,0,0,1,.65-.17.48.48,0,0,1,.16.65,10,10,0,0,0-1,2.46A.46.46,0,0,1,123.66,33.82Zm24-.42a.49.49,0,0,1-.41-.24,17.5,17.5,0,0,0-1.5-2.3.48.48,0,0,1,.09-.66.47.47,0,0,1,.66.09,20,20,0,0,1,1.57,2.41.47.47,0,0,1-.41.7Zm17.56-3.15h-.07a.47.47,0,0,1-.39-.54c.11-.71.2-1.46.26-2.21a.47.47,0,0,1,.51-.43.48.48,0,0,1,.43.51c-.07.77-.16,1.54-.27,2.28A.48.48,0,0,1,165.22,30.25ZM126.48,29a.47.47,0,0,1-.33-.14.48.48,0,0,1,0-.67,14,14,0,0,1,2.28-1.81.47.47,0,1,1,.5.8,12,12,0,0,0-2.12,1.68A.47.47,0,0,1,126.48,29ZM144.24,29a.48.48,0,0,1-.32-.13,14.62,14.62,0,0,0-2.16-1.66.46.46,0,0,1-.15-.64.47.47,0,0,1,.65-.15,15.26,15.26,0,0,1,2.3,1.76.47.47,0,0,1,0,.67A.46.46,0,0,1,144.24,29Zm-13-2.92a.46.46,0,0,1-.44-.3.48.48,0,0,1,.28-.61,14.25,14.25,0,0,1,2.83-.69.47.47,0,1,1,.12.94,11.74,11.74,0,0,0-2.63.64A.44.44,0,0,1,131.21,26Zm8.27,0-.16,0a13,13,0,0,0-1.85-.51c-.26,0-.51-.09-.77-.12a.47.47,0,0,1-.42-.52.48.48,0,0,1,.53-.41c.28,0,.56.08.84.13a13.63,13.63,0,0,1,2,.55.46.46,0,0,1,.28.6A.45.45,0,0,1,139.48,26Z"/><path class="cls-7" d="M45,239.6a.47.47,0,0,1-.33-.14.46.46,0,0,1,0-.66q1-1,1.92-2a.47.47,0,0,1,.66,0,.46.46,0,0,1,0,.66c-.63.7-1.28,1.39-1.94,2.07A.51.51,0,0,1,45,239.6Zm3.78-4.18a.46.46,0,0,1-.29-.11.47.47,0,0,1-.07-.66c.62-.74,1.2-1.48,1.72-2.2a.47.47,0,1,1,.76.56c-.54.73-1.13,1.48-1.75,2.24A.5.5,0,0,1,48.74,235.42Zm3.33-4.55a.47.47,0,0,1-.25-.07.48.48,0,0,1-.15-.65A27.47,27.47,0,0,0,53,227.74a.47.47,0,0,1,.63-.21.49.49,0,0,1,.26.39l.12.05a12.34,12.34,0,0,0,2.47,1.1.47.47,0,0,1-.28.9,13.65,13.65,0,0,1-2.66-1.18h0c-.33.61-.69,1.24-1.09,1.87A.47.47,0,0,1,52.07,230.87Zm7.15-.43a.5.5,0,0,1-.5-.47.44.44,0,0,1,.43-.47h.07a7.57,7.57,0,0,0,2.54-.43.49.49,0,0,1,.6.29.47.47,0,0,1-.29.6A8.66,8.66,0,0,1,59.22,230.44Zm5.16-1.79a.5.5,0,0,1-.38-.19.46.46,0,0,1,.1-.65A11.79,11.79,0,0,0,66,225.92a.46.46,0,0,1,.66-.07.47.47,0,0,1,.07.66,12.17,12.17,0,0,1-2.09,2A.42.42,0,0,1,64.38,228.65Zm-12.89-1.39a.46.46,0,0,1-.29-.1,22.41,22.41,0,0,1-2.12-1.94.47.47,0,1,1,.67-.66,21.86,21.86,0,0,0,2,1.86.47.47,0,0,1,.07.66A.46.46,0,0,1,51.49,227.26Zm3.06-1.43-.15,0a.46.46,0,0,1-.29-.59,14.54,14.54,0,0,0,.64-2.65.47.47,0,0,1,.93.13,16.24,16.24,0,0,1-.68,2.82A.48.48,0,0,1,54.55,225.83Zm13.38-1.5a.44.44,0,0,1-.22-.05.47.47,0,0,1-.19-.64,18,18,0,0,0,1.12-2.51.47.47,0,0,1,.88.32,20.46,20.46,0,0,1-1.17,2.64A.47.47,0,0,1,67.93,224.33Zm-20.35-1.11a.49.49,0,0,1-.38-.18,19,19,0,0,1-1.56-2.43.48.48,0,0,1,.2-.64.47.47,0,0,1,.63.19A18.23,18.23,0,0,0,48,222.47a.46.46,0,0,1-.37.75Zm7.68-2.93a.46.46,0,0,1-.46-.41,9,9,0,0,0-.7-2.58.47.47,0,0,1,.24-.62.48.48,0,0,1,.62.24,10.28,10.28,0,0,1,.77,2.85.48.48,0,0,1-.41.52Zm14.6-1.23h-.1a.47.47,0,0,1-.35-.56,23.83,23.83,0,0,0,.4-2.39l0-.34a.46.46,0,0,1,.52-.41.46.46,0,0,1,.41.51l0,.35c-.1.83-.25,1.67-.43,2.48A.47.47,0,0,1,69.86,219.06ZM45,218.24a.46.46,0,0,1-.45-.35,8.26,8.26,0,0,1-.28-2.1,8.46,8.46,0,0,1,.05-.87.46.46,0,0,1,.52-.4.46.46,0,0,1,.41.52,6.28,6.28,0,0,0,0,.75,7.35,7.35,0,0,0,.25,1.87.48.48,0,0,1-.34.57Zm8-3.05a.44.44,0,0,1-.36-.17,13.52,13.52,0,0,0-1.5-1.54l-.43-.34a.47.47,0,1,1,.56-.75q.24.18.48.39a13.23,13.23,0,0,1,1.62,1.65.46.46,0,0,1-.37.76Zm17.45-1.72h0A.46.46,0,0,1,70,213v-.56c0-.74,0-1.48-.08-2.21a.47.47,0,0,1,.43-.5.45.45,0,0,1,.5.43q.09,1.13.09,2.28c0,.19,0,.38,0,.58A.46.46,0,0,1,70.5,213.47Zm-24.61-.56a.47.47,0,0,1-.33-.8,3.45,3.45,0,0,1,3-.93.46.46,0,0,1,.4.53.46.46,0,0,1-.53.4,2.5,2.5,0,0,0-2.19.66A.51.51,0,0,1,45.89,212.91Zm24.17-5a.46.46,0,0,1-.46-.38c-.16-.91-.37-1.81-.62-2.7a.47.47,0,1,1,.9-.26c.26.92.48,1.86.65,2.79a.48.48,0,0,1-.38.55Zm-1.53-5.4a.48.48,0,0,1-.44-.3c-.33-.85-.72-1.69-1.14-2.53a.47.47,0,1,1,.84-.42c.43.86.83,1.73,1.17,2.6a.46.46,0,0,1-.26.61A.35.35,0,0,1,68.53,202.46Zm-2.54-5a.47.47,0,0,1-.4-.22c-.48-.77-1-1.54-1.57-2.3a.47.47,0,0,1,.76-.55c.57.77,1.11,1.57,1.6,2.35a.47.47,0,0,1-.15.65A.42.42,0,0,1,66,197.44Zm-3.34-4.53a.48.48,0,0,1-.36-.17c-.53-.62-1.1-1.25-1.68-1.86l-.19-.2a.46.46,0,0,1,0-.66.47.47,0,0,1,.67,0l.19.2c.6.63,1.17,1.27,1.72,1.91a.47.47,0,0,1-.06.66A.48.48,0,0,1,62.65,192.91Zm-3.88-4.08a.47.47,0,0,1-.33-.14L57,187.33l-.61-.6a.47.47,0,0,1,0-.67.46.46,0,0,1,.66,0l.61.59L59.1,188a.48.48,0,0,1,0,.67A.51.51,0,0,1,58.77,188.83Zm-4-4a.47.47,0,0,1-.33-.14c-.74-.75-1.37-1.43-2-2.07a.46.46,0,0,1,0-.66.47.47,0,0,1,.66,0c.57.64,1.19,1.3,1.92,2a.46.46,0,0,1,0,.66A.47.47,0,0,1,54.75,184.88ZM51,180.66a.46.46,0,0,1-.37-.18A25,25,0,0,1,49,178.12a.46.46,0,0,1,.15-.64.47.47,0,0,1,.65.15,24.57,24.57,0,0,0,1.57,2.28.46.46,0,0,1-.37.75Zm-2.91-4.8a.48.48,0,0,1-.43-.28,18.75,18.75,0,0,1-1-2.72.47.47,0,0,1,.33-.58.49.49,0,0,1,.58.34,17.59,17.59,0,0,0,.91,2.58.48.48,0,0,1-.24.62A.43.43,0,0,1,48.11,175.86Z"/><path class="cls-7" d="M143.92,238.49a.46.46,0,0,1-.42-.26.47.47,0,0,1,.22-.63,15.46,15.46,0,0,0,2.24-1.54.47.47,0,0,1,.58.73,16.31,16.31,0,0,1-2.41,1.66A.52.52,0,0,1,143.92,238.49Zm4.48-3.42a.47.47,0,0,1-.31-.82c.68-.6,1.37-1.25,2-1.91a.47.47,0,0,1,.65.67c-.68.67-1.38,1.33-2.07,1.94A.49.49,0,0,1,148.4,235.07Zm4-3.94a.45.45,0,0,1-.32-.13.46.46,0,0,1,0-.66c.65-.69,1.27-1.4,1.86-2.09a.46.46,0,1,1,.71.6c-.59.71-1.23,1.42-1.88,2.13A.49.49,0,0,1,152.43,231.13Zm3.63-4.32a.49.49,0,0,1-.28-.09.47.47,0,0,1-.09-.66c.57-.77,1.11-1.54,1.59-2.28a.46.46,0,0,1,.65-.14.47.47,0,0,1,.14.64c-.49.77-1,1.55-1.63,2.34A.46.46,0,0,1,156.06,226.81Zm3-4.75a.44.44,0,0,1-.22-.05.47.47,0,0,1-.2-.63,21.71,21.71,0,0,0,1.12-2.52.47.47,0,1,1,.88.32,23.53,23.53,0,0,1-1.16,2.63A.48.48,0,0,1,159.09,222.06Zm1.87-5.29h-.08a.47.47,0,0,1-.38-.54,11.47,11.47,0,0,0,.14-1.71c0-.33,0-.65,0-1a.47.47,0,1,1,.93-.1,7.93,7.93,0,0,1,.06,1,.48.48,0,0,1,.4-.35c.9-.1,1.82-.25,2.74-.43a.47.47,0,0,1,.18.92c-.94.18-1.88.33-2.81.45a.46.46,0,0,1-.51-.36,11.47,11.47,0,0,1-.16,1.72A.46.46,0,0,1,161,216.77Zm-3.25-1.49q-.66,0-1.32,0a.47.47,0,1,1,0-.94q.67,0,1.35,0c.48,0,.95,0,1.43,0a.48.48,0,0,1,.49.45.47.47,0,0,1-.45.49C158.74,215.27,158.22,215.27,157.71,215.28Zm-4.08-.39-.13,0a5.85,5.85,0,0,1-2.65-1.46.46.46,0,0,1,0-.66.45.45,0,0,1,.66,0,5,5,0,0,0,2.23,1.21.46.46,0,0,1,.33.57A.48.48,0,0,1,153.63,214.89Zm13.91-.95a.47.47,0,0,1-.45-.34.47.47,0,0,1,.33-.58c.88-.24,1.78-.51,2.67-.81a.47.47,0,0,1,.59.29.48.48,0,0,1-.29.6c-.91.31-1.82.58-2.72.83Zm5.33-1.8a.46.46,0,0,1-.43-.29.48.48,0,0,1,.26-.62c.85-.34,1.71-.72,2.55-1.12a.47.47,0,0,1,.63.23.46.46,0,0,1-.23.62c-.85.41-1.73.79-2.6,1.14A.39.39,0,0,1,172.87,212.14Zm-12.58-.86a.48.48,0,0,1-.43-.27,8,8,0,0,0-1.54-2.15.48.48,0,0,1,0-.67.47.47,0,0,1,.67,0,9.15,9.15,0,0,1,1.72,2.4.48.48,0,0,1-.22.63A.46.46,0,0,1,160.29,211.28ZM150.21,211h0a.47.47,0,0,1-.45-.49,4.66,4.66,0,0,1,1.16-2.84.47.47,0,1,1,.71.61,3.73,3.73,0,0,0-.93,2.27A.48.48,0,0,1,150.21,211ZM178,209.74a.48.48,0,0,1-.42-.25.47.47,0,0,1,.2-.63c.8-.43,1.62-.89,2.43-1.37a.47.47,0,0,1,.65.16.46.46,0,0,1-.17.64c-.83.49-1.66,1-2.47,1.4A.59.59,0,0,1,178,209.74Zm-21.59-2.38a.43.43,0,0,1-.19,0,4.09,4.09,0,0,0-2.46-.31.46.46,0,1,1-.19-.91,4.94,4.94,0,0,1,3,.36.46.46,0,0,1,.24.62A.48.48,0,0,1,156.38,207.36Zm26.44-.49a.49.49,0,0,1-.4-.21.47.47,0,0,1,.14-.65c.78-.51,1.55-1,2.31-1.57a.47.47,0,1,1,.54.76q-1.16.83-2.34,1.59A.41.41,0,0,1,182.82,206.87Zm4.59-3.24a.47.47,0,0,1-.28-.85c.74-.56,1.47-1.14,2.2-1.73a.47.47,0,0,1,.59.73c-.73.6-1.47,1.18-2.22,1.75A.46.46,0,0,1,187.41,203.63Zm4.38-3.56a.48.48,0,0,1-.36-.16.46.46,0,0,1,0-.66c.71-.61,1.41-1.24,2.1-1.87a.47.47,0,0,1,.64.7c-.7.63-1.41,1.26-2.13,1.88A.41.41,0,0,1,191.79,200.07Zm4.17-3.8a.48.48,0,0,1-.34-.14.46.46,0,0,1,0-.66c.68-.66,1.34-1.31,2-2a.47.47,0,0,1,.67.67c-.67.66-1.34,1.33-2,2A.45.45,0,0,1,196,196.27Zm4-4a.45.45,0,0,1-.32-.13.47.47,0,0,1,0-.66c.65-.69,1.29-1.38,1.91-2.06a.47.47,0,1,1,.7.63q-.94,1-1.92,2.07A.49.49,0,0,1,199.92,192.27Zm3.79-4.18a.45.45,0,0,1-.31-.11.47.47,0,0,1,0-.66c.62-.72,1.23-1.43,1.82-2.14a.47.47,0,0,1,.72.6l-1.83,2.15A.48.48,0,0,1,203.71,188.09Zm12.58-1.65-.1,0c-.92-.2-1.84-.42-2.75-.66a.47.47,0,0,1-.34-.57.48.48,0,0,1,.57-.34q1.37.35,2.73.66a.47.47,0,0,1-.11.93Zm-5.45-1.4-.13,0c-.91-.26-1.81-.54-2.71-.83a.46.46,0,0,1-.3-.59v0h0A.47.47,0,0,1,207,183c.6-.74,1.18-1.47,1.75-2.2a.47.47,0,1,1,.74.57q-.76,1-1.56,2a.5.5,0,0,1,.4,0c.88.29,1.78.56,2.68.82a.47.47,0,0,1,.32.58A.48.48,0,0,1,210.84,185Zm-5.36-1.73a.45.45,0,0,1-.16,0c-.89-.32-1.78-.65-2.65-1a.47.47,0,0,1,.35-.87c.86.34,1.73.67,2.62,1a.47.47,0,0,1-.16.91Zm-5.23-2.08a.58.58,0,0,1-.19,0c-.88-.39-1.73-.79-2.58-1.2a.47.47,0,0,1-.21-.63.47.47,0,0,1,.63-.21c.83.4,1.68.8,2.54,1.18a.47.47,0,0,1-.19.9Zm10.54-1.92a.47.47,0,0,1-.28-.09.48.48,0,0,1-.1-.66c.58-.77,1.13-1.53,1.66-2.27a.47.47,0,1,1,.77.55q-.81,1.13-1.68,2.28A.47.47,0,0,1,210.79,179.31Zm-15.6-.56a.49.49,0,0,1-.23-.06c-.83-.46-1.66-.93-2.46-1.42a.47.47,0,0,1,.49-.8c.78.48,1.6.94,2.42,1.39a.47.47,0,0,1-.22.89Zm-4.81-2.94a.45.45,0,0,1-.27-.08c-.8-.55-1.57-1.11-2.29-1.67a.47.47,0,1,1,.57-.74c.71.55,1.47,1.1,2.26,1.64a.47.47,0,0,1-.27.85Zm23.7-1.08a.56.56,0,0,1-.27-.08.48.48,0,0,1-.11-.66l1.58-2.32a.46.46,0,0,1,.65-.13.48.48,0,0,1,.13.65q-.75,1.13-1.59,2.34A.47.47,0,0,1,214.08,174.73Zm-28.14-2.37a.45.45,0,0,1-.31-.12c-.72-.64-1.42-1.31-2.06-2a.46.46,0,0,1,0-.66.47.47,0,0,1,.66,0c.63.66,1.31,1.3,2,1.93a.47.47,0,0,1,0,.66A.5.5,0,0,1,185.94,172.36ZM217.21,170A.48.48,0,0,1,217,170a.47.47,0,0,1-.14-.65c.3-.47.59-.93.85-1.36s.42-.68.61-1a.46.46,0,0,1,.64-.18.47.47,0,0,1,.17.64c-.19.35-.4.7-.62,1.05s-.55.9-.86,1.37A.47.47,0,0,1,217.21,170ZM182,168.3a.44.44,0,0,1-.36-.18,27.76,27.76,0,0,1-1.69-2.31.48.48,0,0,1,.13-.65.47.47,0,0,1,.65.14c.5.75,1,1.5,1.64,2.23a.47.47,0,0,1-.07.66A.5.5,0,0,1,182,168.3Zm37.89-3.19a.43.43,0,0,1-.19,0,.48.48,0,0,1-.24-.62,21.24,21.24,0,0,0,.93-2.59.47.47,0,0,1,.58-.32.46.46,0,0,1,.32.58,21.39,21.39,0,0,1-1,2.7A.48.48,0,0,1,219.93,165.11Zm-41-1.52a.46.46,0,0,1-.42-.26c-.27-.52-.52-1.07-.74-1.6a11.16,11.16,0,0,1-.39-1,.47.47,0,0,1,.31-.59.48.48,0,0,1,.59.3,9.68,9.68,0,0,0,.36,1c.21.51.45,1,.71,1.54a.47.47,0,0,1-.21.63A.41.41,0,0,1,179,163.59Zm42.49-3.88h-.06a.47.47,0,0,1-.41-.52,14.37,14.37,0,0,0,.13-1.94c0-.27,0-.53,0-.79a.46.46,0,0,1,.44-.49.46.46,0,0,1,.49.44q0,.4,0,.84a16.21,16.21,0,0,1-.14,2.06A.47.47,0,0,1,221.46,159.71Zm-44.09-1.47a.47.47,0,0,1-.47-.45c0-.12,0-.25,0-.38a9,9,0,0,1,.36-2.55.47.47,0,1,1,.9.27,8.21,8.21,0,0,0-.32,2.28v.35a.46.46,0,0,1-.44.48Zm22.15-1.31a.46.46,0,0,1-.39-.21c-.39-.59-.79-1.16-1.22-1.7a.47.47,0,0,1,.08-.66.47.47,0,0,1,.66.08c.29.36.57.75.85,1.14a.47.47,0,0,1,.77.53l-.34.59a.46.46,0,0,1-.4.23Zm21.59-2.81a.45.45,0,0,1-.45-.34,10.65,10.65,0,0,0-1.07-2.46.47.47,0,0,1,.81-.49,11.46,11.46,0,0,1,1.16,2.7.47.47,0,0,1-.32.58ZM201.42,154a.42.42,0,0,1-.28-.1.46.46,0,0,1-.1-.65,24.21,24.21,0,0,1,1.84-2.21.47.47,0,0,1,.68.65,20.84,20.84,0,0,0-1.76,2.12A.5.5,0,0,1,201.42,154Zm-5-.88a.45.45,0,0,1-.32-.13,16.11,16.11,0,0,0-2.14-1.7.46.46,0,0,1-.13-.65.48.48,0,0,1,.65-.13,17.15,17.15,0,0,1,2.26,1.8.46.46,0,0,1,0,.66A.45.45,0,0,1,196.38,153.12ZM178.94,153a.49.49,0,0,1-.28-.09.48.48,0,0,1-.1-.66,9.6,9.6,0,0,1,2.1-2.07.47.47,0,0,1,.55.77,8.14,8.14,0,0,0-1.89,1.86A.47.47,0,0,1,178.94,153Zm12.75-2.89a.47.47,0,0,1-.17,0,12.3,12.3,0,0,0-2.61-.75.47.47,0,0,1-.38-.54.47.47,0,0,1,.54-.38,13.32,13.32,0,0,1,2.8.8.47.47,0,0,1,.26.61A.47.47,0,0,1,191.69,150.06Zm13.61-.12a.46.46,0,0,1-.37-.18.47.47,0,0,1,.08-.66,16,16,0,0,1,2.45-1.56.48.48,0,0,1,.63.21.46.46,0,0,1-.21.63,14.67,14.67,0,0,0-2.29,1.46A.46.46,0,0,1,205.3,149.94Zm-21.87-.24a.47.47,0,0,1-.15-.91,11.1,11.1,0,0,1,2.87-.59.47.47,0,1,1,.07.94,11,11,0,0,0-2.63.53A.41.41,0,0,1,183.43,149.7Zm34.78-.32a.45.45,0,0,1-.31-.11,8.25,8.25,0,0,0-2.24-1.42A.47.47,0,1,1,216,147a9.08,9.08,0,0,1,2.5,1.57.48.48,0,0,1,0,.67A.47.47,0,0,1,218.21,149.38Zm-7.9-1.91a.45.45,0,0,1-.45-.36.46.46,0,0,1,.35-.56,9.79,9.79,0,0,1,2.93-.24.47.47,0,0,1,.44.5.48.48,0,0,1-.5.44,9.29,9.29,0,0,0-2.66.21Z"/><path class="cls-3" d="M214,329.43c0,2.9-12.61,5.26-28.17,5.26s-28.16-2.36-28.16-5.26,12.61-5.26,28.16-5.26S214,326.53,214,329.43Z"/><path class="cls-1" d="M212.16,316.66a1.69,1.69,0,0,1-1.69,1.69H161.21a1.69,1.69,0,0,1-1.69-1.69h0a1.69,1.69,0,0,1,1.69-1.69h49.26a1.69,1.69,0,0,1,1.69,1.69Z"/><path class="cls-8" d="M164.36,306.66v19.39c0,1.76,1.16,3.19,2.58,3.19l.16,0,0-25.08-.12,0A2.58,2.58,0,0,0,164.36,306.66Z"/><path class="cls-9" d="M166.94,304.09v25.15c1.42,0,2.58-1.43,2.58-3.19V306.66A2.58,2.58,0,0,0,166.94,304.09Z"/><path class="cls-8" d="M202.16,306.66v19.39c0,1.76,1.16,3.19,2.58,3.19l.13,0-.05-25.07-.08,0A2.58,2.58,0,0,0,202.16,306.66Z"/><path class="cls-9" d="M204.74,304.09v25.15c1.43,0,2.58-1.43,2.58-3.19V306.66A2.57,2.57,0,0,0,204.74,304.09Z"/><path class="cls-8" d="M172.24,301.91l-.11,0a2.64,2.64,0,0,0-2.61,2.64v23.64c0,1.79,1.17,3.24,2.61,3.26l.11,0Z"/><path class="cls-9" d="M172.17,301.89h0v29.54h0c1.46,0,2.64-1.47,2.64-3.27V304.53A2.64,2.64,0,0,0,172.17,301.89Z"/><path class="cls-8" d="M196.87,304.53v23.64c0,1.79,1.17,3.24,2.61,3.26h.09l0-29.51-.12,0A2.64,2.64,0,0,0,196.87,304.53Z"/><path class="cls-9" d="M199.52,301.89h0v29.54h0c1.46,0,2.64-1.47,2.64-3.27V304.53A2.64,2.64,0,0,0,199.52,301.89Z"/><path class="cls-3" d="M77.24,325.83c0,2.51-8.13,4.54-18.14,4.54S41,328.34,41,325.83s8.12-4.54,18.15-4.54S77.24,323.32,77.24,325.83Z"/><path class="cls-8" d="M71.12,284c-3.38-3.67-9.12-3.76-12.31-3.76h-.05c-3.17,0-8.72.06-12.12,3.76a12.38,12.38,0,0,0-2,13.82c2,3.65,3.31,5.75,2.43,7.74s-4.26,9-1.11,14.48c2.92,5.09,8,5.53,12.84,5.53h.07c4.9,0,10-.42,12.91-5.53,3.15-5.49-.23-12.49-1.11-14.48s.44-4.09,2.43-7.74A12.38,12.38,0,0,0,71.12,284ZM58.88,318h-.07v-7.62h.07a3.82,3.82,0,0,1,0,7.63Zm5.84-20.27c-2.47.87-4.37-.14-5.91-.14s-3.3,1-5.77.14c-3.59-1.26-4.79-4.64-3.17-8.33,1.46-3.32,6.54-3.46,8.94-3.46h0c2.42,0,7.59.14,9.06,3.46C69.51,293.1,68.3,296.48,64.72,297.74Z"/><path class="cls-8" d="M58.88,310.49h-.07a3.81,3.81,0,0,0,0,7.62h.07a3.82,3.82,0,0,0,0-7.63Z"/><path class="cls-9" d="M60.27,314.32c-1.26,3.94-5,6.26-8.29,5.2s-5-5.13-3.71-9.07,5-6.26,8.3-5.19S61.54,310.38,60.27,314.32Z"/><path class="cls-7" d="M56.36,315.4c.93-.9,1.52-1.5,1.52-2a.52.52,0,0,0-.55-.59,1,1,0,0,0-.66.38l-.34-.34a1.37,1.37,0,0,1,1.08-.52,1,1,0,0,1,1.06,1c0,.6-.55,1.21-1.22,1.92a5.27,5.27,0,0,1,.56,0h.83v.52H56.36Z"/><path class="cls-7" d="M61.46,314.89H61v.87h-.58v-.87H59v-.41l1.34-2.09H61v2h.42Zm-1-.47v-.77c0-.19,0-.5,0-.7h0l-.28.53-.61.94Z"/><path class="cls-7" d="M58.88,318.31a4,4,0,1,1,4-4A4,4,0,0,1,58.88,318.31Zm0-7.57a3.57,3.57,0,1,0,3.56,3.56A3.57,3.57,0,0,0,58.88,310.74Z"/><path class="cls-3" d="M198.77,293.73c0,2.08-6.06,3.76-13.54,3.76s-13.54-1.68-13.54-3.76,6.07-3.75,13.54-3.75S198.77,291.66,198.77,293.73Z"/><path class="cls-8" d="M194.66,261.34c-2.62-2.85-7.08-2.91-9.55-2.91h0c-2.46,0-6.77.05-9.41,2.91a9.61,9.61,0,0,0-1.54,10.73c1.54,2.83,2.57,4.46,1.88,6s-3.3,7-.85,11.24c2.26,3.95,6.17,4.29,10,4.29h0c3.81,0,7.74-.32,10-4.29,2.45-4.26-.17-9.69-.86-11.24s.34-3.17,1.89-6A9.61,9.61,0,0,0,194.66,261.34Zm-9.5,26.43h0v-5.92h0a3,3,0,1,1,0,5.92ZM189.69,272c-1.91.67-3.38-.11-4.58-.11s-2.56.78-4.48.11c-2.78-1-3.72-3.6-2.46-6.46,1.14-2.58,5.07-2.69,6.94-2.69h0c1.88,0,5.9.11,7,2.69C193.41,268.44,192.48,271.06,189.69,272Z"/><path class="cls-8" d="M185.16,281.93h0a3,3,0,0,0,0,5.92h0a3,3,0,1,0,0-5.92Z"/><path class="cls-9" d="M186.25,284.9c-1,3.06-3.87,4.86-6.44,4s-3.86-4-2.88-7,3.87-4.86,6.44-4S187.23,281.85,186.25,284.9Z"/><path class="cls-7" d="M183.2,285.74c.73-.7,1.19-1.16,1.19-1.56a.4.4,0,0,0-.43-.45.71.71,0,0,0-.51.29l-.27-.26a1.07,1.07,0,0,1,.84-.41.77.77,0,0,1,.83.81c0,.46-.43.94-.95,1.49a3.11,3.11,0,0,1,.43,0H185v.4H183.2Z"/><path class="cls-7" d="M187.17,285.35h-.33V286h-.45v-.67h-1.16V285l1-1.63h.57V285h.33Zm-.78-.37v-.59c0-.16,0-.39,0-.55h0l-.22.41-.48.73Z"/><path class="cls-7" d="M185.16,288a3.11,3.11,0,1,1,3.11-3.11A3.11,3.11,0,0,1,185.16,288Zm0-5.88a2.77,2.77,0,1,0,2.77,2.77A2.77,2.77,0,0,0,185.16,282.12Z"/><polygon class="cls-9" points="193.48 97.85 28.7 97.85 27.96 92.69 193.48 92.69 193.48 97.85"/><rect class="cls-8" x="12.04" y="85.17" width="20.25" height="2.53"/><rect class="cls-8" x="12.04" y="81.62" width="20.25" height="1.87"/><rect class="cls-8" x="12.04" y="89.39" width="20.25" height="18.37"/><rect class="cls-8" x="191.93" y="89.39" width="20.25" height="18.37"/><rect class="cls-8" x="191.93" y="81.62" width="20.25" height="1.87"/><rect class="cls-8" x="191.93" y="85.17" width="20.25" height="2.53"/><rect class="cls-9" x="12.04" y="83.49" width="20.25" height="1.69"/><rect class="cls-9" x="12.04" y="87.7" width="20.25" height="1.69"/><rect class="cls-9" x="191.93" y="83.49" width="20.25" height="1.69"/><rect class="cls-9" x="191.93" y="87.7" width="20.25" height="1.69"/><path class="cls-10" d="M110,210.25c0-.52-.8-.43-.87,0,0,.22-.07.43-.1.65-2.75-.47-5.59-.45-8.36-.88a34.42,34.42,0,0,0-6.94-.72c-1.42,0-4.41-.3-5.33,1a1.06,1.06,0,0,0-.06.19c-.23-.33-.86-.3-.88.18-.13,2.65.21,3.16.47,5.8.64,6.33,1,7.85.64,10.75-.68,5.09-2.11,9.7-1.9,17.72.17,6.63,2.83,32.75,3.49,36.48h8.88c.31-2.78.76-7.66,1.34-10.54.44-2.22,4-12,5.06-23,.52-5.4-.15-13.65.21-21.72C105.92,220.91,110.11,217.4,110,210.25Z"/><path class="cls-11" d="M100.35,221.43c-1.91,2.51-5.92,3.49-8.31,1.53a4.07,4.07,0,0,0,4,3.72C98.93,226.82,100.9,222.74,100.35,221.43Z"/><path class="cls-12" d="M89.65,283.66s-.11-.61-.32-1.83a.94.94,0,0,1,.68-1.18,25.84,25.84,0,0,1,8.37,0c1.36.27,1.1,1,1.05,1.3a14.32,14.32,0,0,1-.47,1.82S93.74,282.63,89.65,283.66Z"/><path class="cls-13" d="M90.28,283.2s-1.12,4.92-1.54,7c-.11.52.26,1.62,3.51,1.83,4.36.28,5.14-.64,5.06-1.69-.09-1.25-.14-7-.14-7Z"/><path class="cls-8" d="M84.1,298.38c.42,1.69.59,2.25,1.86,2.39s1.05-2,4.64-1.79c2.39.14,4.18,2.64,6.29,2.36s2.25-2.68,4.64-4.5a2.75,2.75,0,0,1,.39-.25c0-.32,0-.63-.07-.95a86.29,86.29,0,0,0-2.64-12c-1.65-1.81-8.43-1.87-10.11-.18a58.61,58.61,0,0,1-3.6,9.14,20.57,20.57,0,0,0-2.15,4.57A2,2,0,0,1,84.1,298.38Z"/><path class="cls-12" d="M83.92,301.55c1.23,1.93,12.06,1.58,14.69,1,2.9-.65,3.44-2.86,3.31-5.94a2.75,2.75,0,0,0-.39.25c-2.39,1.82-2.53,4.22-4.64,4.5S93,299.12,90.6,299c-3.59-.21-3.37,1.93-4.64,1.79s-1.44-.7-1.86-2.39a2,2,0,0,0-.75-1.23A5.33,5.33,0,0,0,83.92,301.55Z"/><path class="cls-12" d="M90.07,282.78s.83-.37.56.42c-.66,2-2.39,6.47-2.88,7.77-.63,1.69.53,2.84,3.17,2.84s4.42.22,5.16-2.21a33.68,33.68,0,0,0,.53-8.33c-.07-1.16.88-.7.88-.7a8.57,8.57,0,0,0-1.62-.9c-1.16-.25-3.44-.67-4.32-.4A1.93,1.93,0,0,0,90.07,282.78Z"/><path class="cls-14" d="M97.07,284.57a.11.11,0,0,1-.08,0c-4.32-1.8-7-.3-7.06-.29a.21.21,0,0,1-.29-.08.21.21,0,0,1,.08-.28c.12-.07,2.92-1.62,7.43.27a.2.2,0,0,1,.11.27A.21.21,0,0,1,97.07,284.57Z"/><path class="cls-14" d="M97,287.52a.15.15,0,0,1-.09,0c-3.61-1.7-8.06-.39-8.11-.37a.21.21,0,0,1-.26-.14.23.23,0,0,1,.14-.27c.19-.05,4.66-1.37,8.41.4a.21.21,0,0,1,.1.28A.2.2,0,0,1,97,287.52Z"/><path class="cls-14" d="M97,286.05l-.09,0a11,11,0,0,0-7.5-.35.21.21,0,1,1-.14-.39,11.13,11.13,0,0,1,7.82.35.22.22,0,0,1,.1.29A.21.21,0,0,1,97,286.05Z"/><path class="cls-14" d="M96.86,289.35l-.09,0c-3.61-1.7-8.46-.42-8.51-.41a.21.21,0,0,1-.25-.15.21.21,0,0,1,.14-.26c.21-.05,5-1.33,8.8.44a.21.21,0,0,1,.1.28A.21.21,0,0,1,96.86,289.35Z"/><path class="cls-14" d="M96.57,291.11l-.09,0c-3.61-1.71-8.9-.39-9-.37a.21.21,0,0,1-.1-.41c.22-.06,5.49-1.37,9.24.4a.22.22,0,0,1,.11.28A.24.24,0,0,1,96.57,291.11Z"/><path class="cls-10" d="M114.62,210.25c0-.52.8-.43.86,0,0,.22.07.43.11.65,2.75-.47,5.58-.45,8.35-.88a34.5,34.5,0,0,1,6.94-.72c1.42,0,4.41-.3,5.33,1a.62.62,0,0,1,.07.19c.23-.33.86-.3.88.18.13,2.65-.21,3.16-.48,5.8-.63,6.33-1,7.85-.63,10.75.68,5.09,2.11,9.7,1.9,17.72-.18,6.63-2.83,32.75-3.49,36.48h-8.88c-.32-2.78-.76-7.66-1.34-10.54-.44-2.22-4-12-5.06-23-.52-5.4.15-13.65-.21-21.72C118.73,220.91,114.54,217.4,114.62,210.25Z"/><path class="cls-11" d="M124.3,221.43c1.91,2.51,5.92,3.49,8.31,1.53a4.07,4.07,0,0,1-4,3.72C125.72,226.82,123.75,222.74,124.3,221.43Z"/><path class="cls-12" d="M135,283.66s.1-.61.32-1.83a1,1,0,0,0-.68-1.18,25.84,25.84,0,0,0-8.37,0c-1.36.27-1.11,1-1,1.3a15.46,15.46,0,0,0,.46,1.82S130.91,282.63,135,283.66Z"/><path class="cls-13" d="M134.36,283.2s1.13,4.92,1.55,7c.1.52-.26,1.62-3.51,1.83-4.36.28-5.14-.64-5.07-1.69.09-1.25.14-7,.14-7Z"/><path class="cls-8" d="M140.55,298.38c-.42,1.69-.6,2.25-1.86,2.39s-1.06-2-4.64-1.79c-2.39.14-4.19,2.64-6.29,2.36s-2.25-2.68-4.64-4.5a3.46,3.46,0,0,0-.39-.25c0-.32,0-.63.07-.95a86.29,86.29,0,0,1,2.64-12c1.65-1.81,8.42-1.87,10.11-.18a59.26,59.26,0,0,0,3.59,9.14,20.65,20.65,0,0,1,2.16,4.57A1.91,1.91,0,0,0,140.55,298.38Z"/><path class="cls-12" d="M140.73,301.55c-1.23,1.93-12.06,1.58-14.7,1-2.89-.65-3.43-2.86-3.3-5.94a3.46,3.46,0,0,1,.39.25c2.39,1.82,2.53,4.22,4.64,4.5s3.9-2.22,6.29-2.36c3.58-.21,3.37,1.93,4.64,1.79s1.44-.7,1.86-2.39a1.91,1.91,0,0,1,.75-1.23A5.36,5.36,0,0,1,140.73,301.55Z"/><path class="cls-12" d="M134.57,282.78s-.82-.37-.56.42c.67,2,2.4,6.47,2.88,7.77.64,1.69-.52,2.84-3.16,2.84s-4.43.22-5.17-2.21a33.7,33.7,0,0,1-.52-8.33c.07-1.16-.88-.7-.88-.7a8.57,8.57,0,0,1,1.62-.9c1.16-.25,3.44-.67,4.32-.4A1.91,1.91,0,0,1,134.57,282.78Z"/><path class="cls-14" d="M127.58,284.57a.12.12,0,0,0,.08,0c4.32-1.8,7-.3,7.06-.29a.2.2,0,0,0,.28-.08.2.2,0,0,0-.07-.28c-.12-.07-2.93-1.62-7.43.27a.2.2,0,0,0-.11.27A.21.21,0,0,0,127.58,284.57Z"/><path class="cls-14" d="M127.69,287.52a.15.15,0,0,0,.09,0c3.6-1.7,8.06-.39,8.1-.37a.22.22,0,0,0,.27-.14.23.23,0,0,0-.14-.27c-.19-.05-4.66-1.37-8.41.4a.21.21,0,0,0,.09.4Z"/><path class="cls-14" d="M127.62,286.05l.09,0a11,11,0,0,1,7.5-.35.21.21,0,0,0,.27-.12.21.21,0,0,0-.13-.27,11.13,11.13,0,0,0-7.82.35.22.22,0,0,0-.11.29A.24.24,0,0,0,127.62,286.05Z"/><path class="cls-14" d="M127.79,289.35l.09,0c3.61-1.7,8.45-.42,8.5-.41a.21.21,0,0,0,.11-.41c-.2-.05-5-1.33-8.79.44a.21.21,0,0,0-.1.28A.21.21,0,0,0,127.79,289.35Z"/><path class="cls-14" d="M128.07,291.11l.09,0c3.61-1.71,8.91-.39,9-.37a.22.22,0,0,0,.26-.16.21.21,0,0,0-.15-.25c-.22-.06-5.5-1.37-9.25.4a.21.21,0,0,0-.1.28A.22.22,0,0,0,128.07,291.11Z"/><path class="cls-11" d="M48.74,86.7c.89-.58,2.44-.47,2.53,1.9s.47,4.81-.63,5.48c-1.46.89-2.57-.41-2.64-3.33C48,88.46,48,87.2,48.74,86.7Z"/><path class="cls-11" d="M45.81,87.25c1.11-.46,2.42-.38,2.5,1.75s.34,4.64-.68,5.24c-1.35.8-2.47-.72-2.53-3.35C45.06,88.83,45,87.57,45.81,87.25Z"/><path class="cls-11" d="M43,87.56c1.16-.48,2.52-.4,2.6,1.81s.41,4.37-.65,5c-1.4.83-2.61-.3-2.67-3C42.21,89.2,42.18,87.89,43,87.56Z"/><path class="cls-11" d="M40.1,88.34c1-.43,2.19-.36,2.26,1.63s.36,3.92-.56,4.48c-1.23.75-2.29-.26-2.34-2.71C39.42,89.82,39.39,88.64,40.1,88.34Z"/><path class="cls-11" d="M175,87.76c-.9-.58-2.45-.47-2.53,1.9s-.47,4.81.63,5.48c1.46.89,2.57-.42,2.63-3.33C175.75,89.51,175.73,88.25,175,87.76Z"/><path class="cls-11" d="M177.9,88.3c-1.12-.45-2.43-.38-2.51,1.75s-.34,4.64.68,5.25c1.36.79,2.47-.73,2.53-3.35C178.65,89.89,178.68,88.62,177.9,88.3Z"/><path class="cls-11" d="M180.72,88.61c-1.15-.47-2.51-.39-2.59,1.82s-.41,4.37.64,5c1.4.83,2.62-.3,2.68-3C181.5,90.26,181.53,88.94,180.72,88.61Z"/><path class="cls-11" d="M183.61,89.39c-1-.42-2.2-.35-2.27,1.63s-.36,3.92.57,4.49c1.22.74,2.28-.27,2.34-2.72C184.29,90.87,184.32,89.69,183.61,89.39Z"/><path class="cls-10" d="M174.39,97.85a4.18,4.18,0,0,0-3.12-1.29,3.29,3.29,0,0,0,0-3.65c1-.22,2.53-.28,3.3-1.06,1.2-1.2.64-2.75-.56-2.67-2.06.14-5.85.35-6.19,1.69-.56,2.2-1.73,6-.93,8.2.44,1.2,1.81,2,2.73,2.79a28,28,0,0,1,2.61,2.61c-.21,4.85-5.07,16.24-7.92,21.12-1.74-5.52-5.65-8.26-9.85-10.82-2.53-1.55-2.53-6-7.31-10.26-4.58-4.05-8.78-4.61-12.28-4.24h-.06a57.65,57.65,0,0,0-5.67,1.13,6.23,6.23,0,0,1-2.71.15,8,8,0,0,1-4.36-4.62c-8.63,5.22-17.46-.29-19.8-2a11.3,11.3,0,0,1-3.38,5.74,5.58,5.58,0,0,1-3.65,1c-3.93-.46-10.91-4.44-19.16,2.84-4.78,4.21-4.78,8.71-7.31,10.26-4.19,2.56-8.1,5.3-9.84,10.82-2.86-4.88-7.71-16.27-7.92-21.12a28,28,0,0,1,2.61-2.61c.92-.77,2.29-1.59,2.73-2.79.8-2.17-.37-6-.93-8.2-.35-1.34-4.13-1.55-6.19-1.69-1.21-.08-1.76,1.47-.56,2.67.77.78,2.29.84,3.3,1.06a3.29,3.29,0,0,0,0,3.65,4.21,4.21,0,0,0-3.13,1.29c-1.33-.07-6.64,0-8.85,0,.08,3.12,1.44,5.85,1.51,7.54.37,9,3.51,23.73,6.61,28.47,3.72,5.71,9.47,11.1,12.66,8.9,4.63-3.21,14.12-5.53,19.42-12.36,2.21,5.79,5.57,9.63,9.38,15,2.16,3,2.29,17.88,2.24,20.81h40.6c0-1.87-.16-12.23.48-18.66a6.88,6.88,0,0,1,.85-2.15c2.13-3,4.16-5.47,5.84-8.15a53.79,53.79,0,0,0,3.47-6.83c5.3,6.83,14.79,9.15,19.42,12.36,3.18,2.2,8.93-3.19,12.66-8.9,3.09-4.74,6.24-19.52,6.61-28.47.07-1.69,1.42-4.42,1.51-7.54C181,97.8,175.73,97.78,174.39,97.85Z"/><path class="cls-11" d="M122.07,96.94a15,15,0,0,1-.75-6.74l-9.36,0-9,0a17.87,17.87,0,0,1-.64,4.78C104.61,96.65,113.44,102.16,122.07,96.94Z"/><path class="cls-11" d="M141.31,122c-1,3.56-3.13,10.76-12.78,12.28-11,1.74-14.7-2.08-14.7-2.08s-.08,3.63,5.79,5c6.83,1.58,14.55-.27,17.94-4C140.09,130.46,142.35,124.91,141.31,122Z"/><path class="cls-11" d="M81.9,122c1,3.56,3.13,10.76,12.78,12.28,11,1.74,14.7-2.08,14.7-2.08s.08,3.63-5.79,5c-6.83,1.58-14.55-.27-17.94-4C83.12,130.46,80.86,124.91,81.9,122Z"/><path class="cls-11" d="M98.07,145c1,1.38,3.12,3.19,7.53,2.25,5.05-1.08,6-2.38,6-2.38s.63,1.55-1.68,3.1c-2.68,1.8-6.31,2.28-8.39,1.24C100,148.43,98.09,146.41,98.07,145Z"/><path class="cls-11" d="M126.22,145c-1,1.38-3.12,3.19-7.53,2.25-5-1.08-6-2.38-6-2.38s-.63,1.55,1.68,3.1c2.68,1.8,6.31,2.28,8.39,1.24C124.31,148.43,126.2,146.41,126.22,145Z"/><path class="cls-11" d="M98,152.57c1,1.38,3.12,3.18,7.53,2.24,5-1.07,6-2.38,6-2.38s.63,1.55-1.68,3.1c-2.68,1.81-6.31,2.29-8.39,1.25C99.91,156,98,154,98,152.57Z"/><path class="cls-11" d="M126.15,152.57c-1,1.38-3.12,3.18-7.53,2.24-5.05-1.07-6-2.38-6-2.38s-.63,1.55,1.68,3.1c2.68,1.81,6.31,2.29,8.39,1.25C124.24,156,126.13,154,126.15,152.57Z"/><path class="cls-15" d="M127,75.92a1.54,1.54,0,0,0-2.46-.71c.2-1.24,2.08-13.55-3.8-16.88-3.09-1.74-7.44-1.8-9-1.79v-.08c-.43,0-5.32-.18-9,1.87C96.9,61.66,98.78,74,99,75.21a1.54,1.54,0,0,0-2.46.71c-.67,1.67,0,4.88,1.15,5.82.53.44,1.76.56,2.14.77.58,2.83.9,5.82,2.59,8.19,2.82,4,8.22,4.21,9.51,4.21a10.75,10.75,0,0,0,9.16-4.21c1.85-2.24,2-5.36,2.59-8.19.38-.21,1.61-.33,2.14-.77C127,80.8,127.62,77.59,127,75.92Z"/><path class="cls-11" d="M99,77.16l.37,3a2.65,2.65,0,0,1-1.23-2C98,77.37,98.27,76.83,99,77.16Z"/><path class="cls-11" d="M124.6,77.16l-.37,3a2.65,2.65,0,0,0,1.23-2C125.57,77.37,125.28,76.83,124.6,77.16Z"/><path class="cls-16" d="M126.06,61.92c-.64-5.57-5-7.47-13.37-8l-1-.05h0l-1,.05c-8.33.53-12.73,2.43-13.37,8a60.37,60.37,0,0,0,.45,12.92l1.12.37s.65-8.94,2.7-10.31,3.47.15,9.61.15h.89c6.14,0,7.56-1.51,9.61-.15s2.7,10.31,2.7,10.31l1.12-.37A60.37,60.37,0,0,0,126.06,61.92Z"/><path class="cls-17" d="M113,161.54c0,.77-.39,1.4-.88,1.4s-.89-.63-.89-1.4.4-1.4.89-1.4S113,160.76,113,161.54Z"/><path class="cls-16" d="M101.46,73.15c3.11-2.05,8-.31,8-.31a4.27,4.27,0,0,0-.53-1.11c-.9-.94-2.84-1.21-5-1A3.47,3.47,0,0,0,101.46,73.15Z"/><path class="cls-16" d="M122.44,73.15c-3.11-2.05-8-.31-8-.31a4.27,4.27,0,0,1,.53-1.11c.9-.94,2.85-1.21,5-1A3.45,3.45,0,0,1,122.44,73.15Z"/><path class="cls-11" d="M113.73,83.62c-.11-.22-.53-.24-.48,0,.16.85-.82,1.15-1.4,1.14-1.42,0-1.62-.89-1.6-1,0-.33-.35-.49-.53-.07-.49,1.09,1,2,2.16,1.92S114.28,84.8,113.73,83.62Z"/><path class="cls-7" d="M102.8,75.89a3,3,0,0,1,3.09-1.51,3.29,3.29,0,0,1,3,2,4.61,4.61,0,0,1-3.62,1.23A3.44,3.44,0,0,1,102.8,75.89Z"/><path class="cls-9" d="M107.3,75.71a1.47,1.47,0,1,1-1.47-1.47A1.47,1.47,0,0,1,107.3,75.71Z"/><path class="cls-16" d="M106.51,75.7a.73.73,0,0,1-1.46,0,.73.73,0,0,1,1.46,0Z"/><path class="cls-7" d="M106.75,75.31a.51.51,0,1,1-.51-.51A.51.51,0,0,1,106.75,75.31Z"/><path class="cls-16" d="M102.8,75.89a3.56,3.56,0,0,1,3.32-1.42,3.89,3.89,0,0,1,2.79,2s0-.37-.6-1.26a3.65,3.65,0,0,0-3.72-1A2.63,2.63,0,0,0,102.8,75.89Z"/><path class="cls-7" d="M121.18,75.89a3,3,0,0,0-3.09-1.51,3.31,3.31,0,0,0-3,2,4.61,4.61,0,0,0,3.62,1.23A3.45,3.45,0,0,0,121.18,75.89Z"/><path class="cls-9" d="M116.67,75.71a1.47,1.47,0,1,0,1.47-1.47A1.47,1.47,0,0,0,116.67,75.71Z"/><path class="cls-16" d="M117.46,75.7a.74.74,0,0,0,1.47,0,.74.74,0,0,0-1.47,0Z"/><path class="cls-7" d="M118.08,75.31a.52.52,0,1,0,.52-.51A.51.51,0,0,0,118.08,75.31Z"/><path class="cls-16" d="M121.18,75.89a3.57,3.57,0,0,0-3.32-1.42,3.9,3.9,0,0,0-2.8,2s0-.37.6-1.26a3.67,3.67,0,0,1,3.73-1A2.68,2.68,0,0,1,121.18,75.89Z"/><path class="cls-7" d="M116.85,87.39h-5c-1.76,0-3.89,0-4.93.06a2.64,2.64,0,0,0,.73.68,1.65,1.65,0,0,0-.56.32,6.53,6.53,0,0,0,4.7,1.79,7,7,0,0,0,4.88-1.76,1.78,1.78,0,0,0-.6-.35A2.77,2.77,0,0,0,116.85,87.39Z"/><path class="cls-7" d="M106.92,87.45h-.64a4.77,4.77,0,0,0,.81,1,1.65,1.65,0,0,1,.56-.32A2.64,2.64,0,0,1,106.92,87.45Z"/><path class="cls-18" d="M106.92,87.45h-.64a4.77,4.77,0,0,0,.81,1,1.65,1.65,0,0,1,.56-.32A2.64,2.64,0,0,1,106.92,87.45Z"/><path class="cls-7" d="M117.59,87.39h-.74a2.77,2.77,0,0,1-.78.74,1.78,1.78,0,0,1,.6.35A5,5,0,0,0,117.59,87.39Z"/><path class="cls-18" d="M117.59,87.39h-.74a2.77,2.77,0,0,1-.78.74,1.78,1.78,0,0,1,.6.35A5,5,0,0,0,117.59,87.39Z"/><path class="cls-12" d="M112.48,166.23H91.8s-.5,1.67-1.14,3.94h42.89c-.64-2.27-1.14-3.93-1.14-3.93Z"/><path class="cls-8" d="M132.2,170.16h-40a188.08,188.08,0,0,0-4,18.56c-.62,5-1.32,21.08-1.64,29.1h24l1.57-19,1.75,19h24.08c-.31-6.4-1.05-20.13-2.09-29.25C135.21,183.11,133,173.58,132.2,170.16Z"/><path class="cls-8" d="M92.2,170.16H90.66c-1,3.47-2.32,8.37-2.78,11a198.23,198.23,0,0,0-2.94,36.71h1.59c.32-8,1-24.1,1.64-29.1A188.08,188.08,0,0,1,92.2,170.16Z"/><path class="cls-14" d="M92.2,170.16H90.66c-1,3.47-2.32,8.37-2.78,11a198.23,198.23,0,0,0-2.94,36.71h1.59c.32-8,1-24.1,1.64-29.1A188.08,188.08,0,0,1,92.2,170.16Z"/><path class="cls-8" d="M136.33,181.12c-.45-2.59-1.79-7.49-2.78-11H132.2c.81,3.42,3,13,3.64,18.42,1,9.12,1.78,22.85,2.09,29.25h1.49A207.17,207.17,0,0,0,136.33,181.12Z"/><path class="cls-14" d="M136.33,181.12c-.45-2.59-1.79-7.49-2.78-11H132.2c.81,3.42,3,13,3.64,18.42,1,9.12,1.78,22.85,2.09,29.25h1.49A207.17,207.17,0,0,0,136.33,181.12Z"/><rect class="cls-14" x="127.82" y="214.66" width="6.85" height="1.27"/><path class="cls-19" d="M214,92.74a6.29,6.29,0,1,1-6.29-6.28A6.29,6.29,0,0,1,214,92.74Z"/><path class="cls-10" d="M287.41,155.75c-.44-3.51-2.69-7.74-5.11-13.67-2.54-6.23-8.1-10.68-9.23-14.34-1.45-4.72-5.69-8.41-12.5-8.11l-.87,0c-.57,2.9-1.23,9.83,1.3,15.86.92,2.2,2.18,5.06,3,7l1.21-5.3c1.58,3.44,6.82,12.62,11.37,17.41-4.17,4.4-5.71,6.82-11.2,16.7-.43.77-3.49,3.61-3.63,4.51-.37,2.41,1.18,14.43,4.06,14.17a8.75,8.75,0,0,0,5.94-3.13c.42-.51,0-2.31-4.12-.33a13.91,13.91,0,0,0,1.15-8.57c3.08-4.4,10.34-9.58,13.68-15.49C284.61,158.72,287.3,157.84,287.41,155.75Z"/><path class="cls-10" d="M228.82,119.63h-.25c-4.91-.22-9.83,1.88-14.39,4-4.12.86-7.28-.86-13.72,1.59a19.94,19.94,0,0,0,1.17-3.92c1.27-4.7,2.65-10.52,4.1-15.39a6.35,6.35,0,0,0,2.71-.85c1-.78.78-.43,1.11.26.73,1.55,3.31-1.32,5.65-4.75s.44-5.8-3.85-6.56-4.76-1.55-7.58,3.35c-1,1.8-8.5,15.84-11,21.71-.21.49-4.41,9.89-4.08,14.11.15,1.77,2.67,2.89,6.62,3.28,2.69.27,8.89,1.24,14.36.35,4.85-.78,7.34-1.25,11.23-.88l.14.06c2.31.82,3.36,3.44,4,6.12l2.82-6.69C230.32,129.39,229.4,122.53,228.82,119.63Z"/><path class="cls-10" d="M250,114.7v.07a13.6,13.6,0,0,1,.15-6.29l-5.34,1-.21,0-5.14-1s1.12,4-.09,7a7.3,7.3,0,0,1-3.12,2.82c.37,2.71,1.92,8.94,8.26,8.76h.09c6.58.12,7.95-6.68,8.23-9.13A6.18,6.18,0,0,1,250,114.7Z"/><path class="cls-10" d="M258.09,164a46.5,46.5,0,0,1,2.25-9.44h-31.5a31.53,31.53,0,0,1,2.48,8.88c.47,5.18-3.22,9.16-5.2,16.06l16.41.22v.06l2.05,0h.27l2.32,0v-.06l16-.22C261.2,172.61,257.62,169.19,258.09,164Z"/><path class="cls-16" d="M230.75,93.59c2.32,1.39,5.23,2,7.8,2.71a24.07,24.07,0,0,0,11.62.56c3.2-.71,7.47-1.94,9.24-5,1.53-2.63.57-9.31.09-10.72-2-5.85-4-7.53-8.75-7.71a8.7,8.7,0,0,0-7.53-3.2c-6.59.17-11.46,4.4-14.21,12.47C228.73,83.56,227.48,90.53,230.75,93.59Z"/><path class="cls-15" d="M259.67,92.13a1.57,1.57,0,0,0-1.82-.95s-1.45-4.61-2.42-8A29.7,29.7,0,0,0,245.05,80v-.07c-.55,0-1.61,0-2.19,0a42.85,42.85,0,0,0-7.06.59,11,11,0,0,1-1.76.3c-.7,3.82-2,10.53-2.44,10.43h-.06l-.15,0a1.35,1.35,0,0,0-1.56.86c-.89,1.6,0,4.73,1.18,5.71a10,10,0,0,0,1.45,1c.59,2.91,1.55,5.64,3.11,7.31,4,4.27,7.63,5.18,8.68,5.37l.3,0h.14c.72-.1,4.69-.81,9-5.4,1.5-1.61,2.45-4.21,3.05-7a9.85,9.85,0,0,0,1.76-1.16C259.67,96.87,260.56,93.74,259.67,92.13Z"/><path class="cls-16" d="M258.1,83.94c.17-2.42-4.33-7.88-7.1-7.27a4,4,0,0,0-1.49.88,19,19,0,0,0-11.16-1.06c-7.8,1.48-7.12,14.11-7.12,14.11s11.62-3.39,15.32-7.29c-1,3.29-6.5,5-6.5,5a9.18,9.18,0,0,0,6.47-2,19.57,19.57,0,0,0,2.66-2.77c2,2.61,5.74,5.29,8.82,7.27C259.7,88.09,257.93,86.37,258.1,83.94Z"/><path class="cls-11" d="M231.4,93.21l.38,3.09a2.72,2.72,0,0,1-1.27-2C230.4,93.43,230.7,92.87,231.4,93.21Z"/><path class="cls-11" d="M257.56,93.21l-.38,3.09a2.72,2.72,0,0,0,1.27-2C258.56,93.43,258.26,92.87,257.56,93.21Z"/><path class="cls-17" d="M245.46,173.72c0,.74-.37,1.33-.84,1.33s-.84-.59-.84-1.33.37-1.33.84-1.33S245.46,173,245.46,173.72Z"/><path class="cls-19" d="M216.87,104.31A6.29,6.29,0,1,1,210.58,98,6.29,6.29,0,0,1,216.87,104.31Z"/><path class="cls-10" d="M220,250.08c-1.92,9.14.15,34.35.66,38.9,4.54,1,6.15.19,6.15.19s7-22.81,7-33.22c0-3.57-.31-5.81.95-10.6.27-1,1.94-5.1,3.09-8.65H221.56c.15,1.06.29,2.12.41,3.16C222.48,244.15,220.61,247.23,220,250.08Z"/><path class="cls-8" d="M223.18,189.43c.35-1.46.72-2.9,1.08-4.28C223.89,186.46,223.52,187.9,223.18,189.43Z"/><path class="cls-8" d="M226,179.51a50.34,50.34,0,0,0-1.78,5.64c1.4.53,3.49,2.08,3.08,6.61-.29,3.2-2.25,19.87-2.34,22.23-.11,2.94-.73,19.31-.86,22.71h13.73c1-2.95,1.95-6.18,2.53-8.7.94-4.15,2.86-16,3.78-21.77.06-.39.34-3.23.34-3.23V179.51Z"/><path class="cls-19" d="M227.34,191.76c.41-4.53-1.68-6.08-3.08-6.61-.36,1.38-.73,2.82-1.08,4.28A90.12,90.12,0,0,0,221,204.85c-.27,6.09-.73,20.72.53,31.85h2.58c.13-3.4.75-19.77.86-22.71C225.09,211.63,227.05,195,227.34,191.76Z"/><path class="cls-6" d="M219.92,290.43l-.27-1.51a.78.78,0,0,1,.57-1,21,21,0,0,1,6.9,0c1.13.22.92.81.87,1.07a11.4,11.4,0,0,1-.38,1.5A20.51,20.51,0,0,0,219.92,290.43Z"/><path class="cls-13" d="M220.44,290.05s-.93,4.07-1.28,5.81c-.08.43.22,1.33,2.9,1.51,3.6.23,4.25-.53,4.18-1.4-.07-1-.11-5.8-.11-5.8Z"/><path class="cls-19" d="M215.33,302.59c.35,1.39.5,1.86,1.54,2s.87-1.65,3.83-1.48c2,.12,3.45,2.18,5.19,1.95s1.86-2.21,3.84-3.72a1.66,1.66,0,0,1,.32-.2q0-.39-.06-.78a71.63,71.63,0,0,0-2.18-9.93c-1.36-1.49-7-1.54-8.35-.15a48.47,48.47,0,0,1-3,7.55,16.93,16.93,0,0,0-1.78,3.78A1.54,1.54,0,0,1,215.33,302.59Z"/><path class="cls-6" d="M215.19,305.2c1,1.6,9.95,1.31,12.13.82,2.39-.55,2.83-2.37,2.73-4.91a1.66,1.66,0,0,0-.32.2c-2,1.51-2.09,3.49-3.84,3.72s-3.22-1.83-5.19-1.95c-3-.17-2.79,1.6-3.83,1.48s-1.19-.58-1.54-2a1.54,1.54,0,0,0-.62-1A4.4,4.4,0,0,0,215.19,305.2Z"/><path class="cls-6" d="M220.27,289.71s.68-.31.46.34c-.55,1.66-2,5.35-2.38,6.42-.52,1.39.43,2.35,2.61,2.35s3.66.17,4.27-1.83a28.08,28.08,0,0,0,.43-6.88c-.06-1,.73-.58.73-.58a7.67,7.67,0,0,0-1.34-.74,10.57,10.57,0,0,0-3.57-.33A1.58,1.58,0,0,0,220.27,289.71Z"/><path class="cls-7" d="M226,291.19l-.07,0c-3.56-1.48-5.8-.25-5.82-.24a.18.18,0,0,1-.24-.06.17.17,0,0,1,.07-.24c.09-.06,2.41-1.33,6.13.22a.18.18,0,0,1-.07.34Z"/><path class="cls-7" d="M226,293.62h-.07c-3-1.41-6.66-.32-6.7-.31a.17.17,0,0,1-.21-.12.18.18,0,0,1,.11-.22c.16,0,3.85-1.13,6.95.33a.18.18,0,0,1,.08.23A.16.16,0,0,1,226,293.62Z"/><path class="cls-7" d="M226,292.41l-.07,0a9,9,0,0,0-6.2-.29.17.17,0,0,1-.22-.1.18.18,0,0,1,.11-.22,9.18,9.18,0,0,1,6.45.29.19.19,0,0,1,.09.24A.18.18,0,0,1,226,292.41Z"/><path class="cls-7" d="M225.87,295.13h-.08c-3-1.41-7-.35-7-.34a.17.17,0,0,1-.21-.12.18.18,0,0,1,.12-.22c.17,0,4.16-1.1,7.26.36a.17.17,0,0,1,.08.23A.16.16,0,0,1,225.87,295.13Z"/><path class="cls-7" d="M225.63,296.58h-.07c-3-1.41-7.35-.32-7.4-.31a.17.17,0,0,1-.21-.13.18.18,0,0,1,.13-.21c.18,0,4.53-1.13,7.63.33a.18.18,0,0,1,.08.23A.16.16,0,0,1,225.63,296.58Z"/><path class="cls-11" d="M231.06,241.12c-1.83,1.77-4.6,2.61-6.38,1.14.26,1.68,1.27,2.25,2.91,2.33C229.74,244.7,231.37,242.45,231.06,241.12Z"/><path class="cls-10" d="M268.81,250.08c1.92,9.14-.16,34.35-.66,38.9-4.54,1-6.15.19-6.15.19s-7-22.81-7-33.22c0-3.57.31-5.81-.95-10.6-.27-1-1.94-5.1-3.09-8.65h16.31c-.15,1.06-.29,2.12-.41,3.16C266.35,244.15,268.22,247.23,268.81,250.08Z"/><path class="cls-8" d="M265.65,189.43c-.35-1.46-.72-2.9-1.08-4.28C264.94,186.46,265.31,187.9,265.65,189.43Z"/><path class="cls-8" d="M262.79,179.51a50.34,50.34,0,0,1,1.78,5.64c-1.4.53-3.49,2.08-3.08,6.61.29,3.2,2.25,19.87,2.34,22.23.11,2.94.73,19.31.86,22.71H251c-1-2.95-2-6.18-2.53-8.7-.94-4.15-2.86-16-3.78-21.77-.06-.39-.34-3.23-.34-3.23V179.51Z"/><path class="cls-19" d="M261.49,191.76c-.41-4.53,1.68-6.08,3.08-6.61.36,1.38.73,2.82,1.08,4.28a91.12,91.12,0,0,1,2.15,15.42c.27,6.09.73,20.72-.53,31.85h-2.58c-.13-3.4-.75-19.77-.86-22.71C263.74,211.63,261.78,195,261.49,191.76Z"/><path class="cls-6" d="M268.91,290.43l.27-1.51a.78.78,0,0,0-.56-1,21.09,21.09,0,0,0-6.91,0c-1.13.22-.92.81-.87,1.07a11.4,11.4,0,0,0,.38,1.5A20.51,20.51,0,0,1,268.91,290.43Z"/><path class="cls-13" d="M268.39,290.05s.93,4.07,1.28,5.81c.08.43-.22,1.33-2.91,1.51-3.59.23-4.24-.53-4.17-1.4.07-1,.11-5.8.11-5.8Z"/><path class="cls-19" d="M273.5,302.59c-.35,1.39-.5,1.86-1.54,2s-.87-1.65-3.83-1.48c-2,.12-3.45,2.18-5.2,1.95s-1.85-2.21-3.83-3.72a2,2,0,0,0-.32-.2q0-.39.06-.78A71.63,71.63,0,0,1,261,290.4c1.37-1.49,7-1.54,8.35-.15a48.47,48.47,0,0,0,3,7.55,16.93,16.93,0,0,1,1.78,3.78A1.54,1.54,0,0,0,273.5,302.59Z"/><path class="cls-6" d="M273.64,305.2c-1,1.6-9.95,1.31-12.13.82-2.39-.55-2.83-2.37-2.73-4.91a2,2,0,0,1,.32.2c2,1.51,2.09,3.49,3.83,3.72s3.23-1.83,5.2-1.95c3-.17,2.79,1.6,3.83,1.48s1.19-.58,1.54-2a1.54,1.54,0,0,1,.62-1A4.4,4.4,0,0,1,273.64,305.2Z"/><path class="cls-6" d="M268.56,289.71s-.68-.31-.46.34c.55,1.66,2,5.35,2.38,6.42.52,1.39-.44,2.35-2.61,2.35s-3.66.17-4.27-1.83a27.6,27.6,0,0,1-.43-6.88c.05-1-.73-.58-.73-.58a7.31,7.31,0,0,1,1.34-.74,10.57,10.57,0,0,1,3.57-.33A1.58,1.58,0,0,1,268.56,289.71Z"/><path class="cls-7" d="M262.79,291.19l.07,0c3.56-1.48,5.8-.25,5.82-.24a.18.18,0,0,0,.24-.06.17.17,0,0,0-.07-.24c-.09-.06-2.41-1.33-6.13.22a.18.18,0,0,0,.07.34Z"/><path class="cls-7" d="M262.88,293.62H263c3-1.41,6.66-.32,6.7-.31a.17.17,0,0,0,.21-.12.18.18,0,0,0-.11-.22c-.16,0-3.85-1.13-6.95.33a.18.18,0,0,0-.08.23A.16.16,0,0,0,262.88,293.62Z"/><path class="cls-7" d="M262.82,292.41l.07,0a9,9,0,0,1,6.2-.29.17.17,0,0,0,.22-.1.18.18,0,0,0-.11-.22,9.2,9.2,0,0,0-6.46.29.19.19,0,0,0-.08.24A.18.18,0,0,0,262.82,292.41Z"/><path class="cls-7" d="M263,295.13H263c3-1.41,7-.35,7-.34a.17.17,0,0,0,.21-.12.18.18,0,0,0-.12-.22c-.17,0-4.16-1.1-7.26.36a.16.16,0,0,0-.08.23A.16.16,0,0,0,263,295.13Z"/><path class="cls-7" d="M263.2,296.58h.07c3-1.41,7.35-.32,7.4-.31a.17.17,0,0,0,.21-.13.18.18,0,0,0-.13-.21c-.18,0-4.53-1.13-7.63.33a.18.18,0,0,0-.08.23A.16.16,0,0,0,263.2,296.58Z"/><path class="cls-11" d="M257.77,241.12c1.83,1.77,4.6,2.61,6.38,1.14-.26,1.68-1.27,2.25-2.91,2.33C259.09,244.7,257.46,242.45,257.77,241.12Z"/><path class="cls-5" d="M262.32,148.23c.33-1.39,1.07-3.76,1.77-5.94l-2.9-6.88c-2.52-6-1.6-12.85-1-15.76a13.63,13.63,0,0,1-7.35-1.7c-.28,2.45-1.65,9.25-8.23,9.13h-.09c-6.34.18-7.89-6-8.26-8.76a15.14,15.14,0,0,1-7.41,1.31c.58,2.9,1.5,9.76-1,15.78L225,142.1c.45,2,1,4.27,1.55,6.13.35,1.21.77,2.39,1.22,3.55h33.51C261.7,150.42,262.09,149.21,262.32,148.23Z"/><path class="cls-6" d="M244.42,154.57h15.92l.92-2.79H227.75c.36.94.73,1.87,1.09,2.79Z"/><path class="cls-7" d="M234.89,94a4,4,0,0,1,6.83.53,5,5,0,0,1-4.23,1.21A4.52,4.52,0,0,1,234.89,94Z"/><path class="cls-9" d="M239.84,93.78a1.5,1.5,0,1,1-1.5-1.49A1.5,1.5,0,0,1,239.84,93.78Z"/><path class="cls-16" d="M239,93.77a.75.75,0,1,1-.75-.75A.76.76,0,0,1,239,93.77Z"/><path class="cls-7" d="M239.27,93.37a.52.52,0,0,1-.52.52.52.52,0,0,1,0-1A.52.52,0,0,1,239.27,93.37Z"/><path class="cls-16" d="M240.83,93.07a4.23,4.23,0,0,0-4.14-.88,3.52,3.52,0,0,0-2,1.64,4.5,4.5,0,0,0,.9.93,4.36,4.36,0,0,1-.41-.74,3.89,3.89,0,0,1,2.92-1.45,4.63,4.63,0,0,1,3.62,2A2.63,2.63,0,0,0,240.83,93.07Z"/><path class="cls-7" d="M254.29,94a4,4,0,0,0-6.83.53,5,5,0,0,0,4.22,1.21A4.52,4.52,0,0,0,254.29,94Z"/><path class="cls-9" d="M249.34,93.78a1.5,1.5,0,1,0,1.49-1.49A1.49,1.49,0,0,0,249.34,93.78Z"/><path class="cls-16" d="M250.14,93.77a.76.76,0,0,0,.75.75.75.75,0,0,0,0-1.5A.76.76,0,0,0,250.14,93.77Z"/><path class="cls-7" d="M249.9,93.37a.52.52,0,0,0,.52.52.52.52,0,0,0,0-1A.52.52,0,0,0,249.9,93.37Z"/><path class="cls-16" d="M248.35,93.07a4.22,4.22,0,0,1,4.14-.88,3.53,3.53,0,0,1,2,1.64,4.6,4.6,0,0,1-.89.93A4.36,4.36,0,0,0,254,94a3.91,3.91,0,0,0-2.93-1.45,4.6,4.6,0,0,0-3.61,2A2.63,2.63,0,0,1,248.35,93.07Z"/><path class="cls-16" d="M234.45,90.61a6.12,6.12,0,0,1,4.43-.72,6.81,6.81,0,0,1,3,1.62s-.32-1.79-3-2.38A4.1,4.1,0,0,0,234.45,90.61Z"/><path class="cls-16" d="M254.56,90.61a6.12,6.12,0,0,0-4.43-.72,6.81,6.81,0,0,0-2.95,1.62s.32-1.79,3-2.38A4.1,4.1,0,0,1,254.56,90.61Z"/><path class="cls-11" d="M245.57,101.62c-.43.3-.54.54-1.15.54a1.69,1.69,0,0,1-1.29-.6c-.2-.2-.53.09-.3.35a2.21,2.21,0,0,0,1.48.85,1.89,1.89,0,0,0,1.57-.73C246.22,101.71,246,101.34,245.57,101.62Z"/><path class="cls-7" d="M248.26,104.52h-7.73a1.4,1.4,0,0,0,.43.6,2.07,2.07,0,0,0-.43.2,5.81,5.81,0,0,0,3.87,1.48,6.13,6.13,0,0,0,3.91-1.44,1.54,1.54,0,0,0-.48-.24A1.4,1.4,0,0,0,248.26,104.52Z"/><path class="cls-7" d="M240.53,104.52h-.77a5.34,5.34,0,0,0,.77.8,2.07,2.07,0,0,1,.43-.2A1.4,1.4,0,0,1,240.53,104.52Z"/><path class="cls-18" d="M240.53,104.52h-.77a5.34,5.34,0,0,0,.77.8,2.07,2.07,0,0,1,.43-.2A1.4,1.4,0,0,1,240.53,104.52Z"/><path class="cls-7" d="M249.13,104.52h-.87a1.4,1.4,0,0,1-.43.6,1.54,1.54,0,0,1,.48.24A5.12,5.12,0,0,0,249.13,104.52Z"/><path class="cls-18" d="M249.13,104.52h-.87a1.4,1.4,0,0,1-.43.6,1.54,1.54,0,0,1,.48.24A5.12,5.12,0,0,0,249.13,104.52Z"/><path class="cls-3" d="M326.34,318.49c0,1.49-4.69,2.7-10.47,2.7s-10.47-1.21-10.47-2.7,4.68-2.7,10.47-2.7S326.34,317,326.34,318.49Z"/><rect class="cls-20" x="315.46" y="285.89" width="4.76" height="4.17"/><path class="cls-21" d="M315.46,279.92h0c.28,0,.54,0,.8,0v-2.08h-.82Z"/><polygon class="cls-8" points="315.46 277.31 315.46 277.68 315.46 277.87 316.27 277.87 316.55 277.87 316.55 277.31 315.46 277.31"/><path class="cls-22" d="M316.28,280c-.26,0-.52,0-.8,0h0v1.44h4.33A5.46,5.46,0,0,0,316.28,280Z"/><path class="cls-8" d="M320.42,281.36h-5v4.53h5a.36.36,0,0,0,.36-.36v-3.81A.36.36,0,0,0,320.42,281.36Z"/><rect class="cls-22" x="310.74" y="285.89" width="4.72" height="4.17"/><path class="cls-23" d="M315.46,277.87h-.78V280c.25,0,.5,0,.78,0Z"/><polygon class="cls-9" points="314.4 277.31 314.4 277.87 314.68 277.87 315.46 277.87 315.46 277.68 315.46 277.31 314.4 277.31"/><path class="cls-2" d="M314.68,280a5.08,5.08,0,0,0-3.54,1.41h4.32v-1.44C315.18,279.92,314.93,279.93,314.68,280Z"/><path class="cls-9" d="M311.14,281.36h-.6a.36.36,0,0,0-.36.36v3.81a.36.36,0,0,0,.36.36h4.92v-4.53Z"/><path class="cls-5" d="M311,287.25a1.6,1.6,0,0,0-1.6,1.59v4a3.25,3.25,0,0,1,0,4.53V300a3.24,3.24,0,0,1,0,4.52V307a3.13,3.13,0,0,1,.92,2.26,3.18,3.18,0,0,1-.92,2.27v4.39c0,.88.16,2.53,1.6,2.61h4.46V287.25Z"/><path class="cls-6" d="M319.93,287.25a1.59,1.59,0,0,1,1.59,1.59v4a3.27,3.27,0,0,0,0,4.53V300a3.26,3.26,0,0,0,0,4.52V307a3.13,3.13,0,0,0-.91,2.26,3.17,3.17,0,0,0,.91,2.27v4.39c0,.88-.21,2.58-1.59,2.61h-4.47V287.25Z"/><path class="cls-7" d="M87.14,34.58a4.21,4.21,0,1,1-4.21-4.2A4.22,4.22,0,0,1,87.14,34.58Z"/><path class="cls-7" d="M36.49,152.43a4.21,4.21,0,1,1-4.2-4.2A4.21,4.21,0,0,1,36.49,152.43Z"/><path class="cls-7" d="M98.79,28.71a2.63,2.63,0,1,1-2.63-2.63A2.62,2.62,0,0,1,98.79,28.71Z"/><path class="cls-7" d="M43.58,144.87A2.63,2.63,0,1,1,41,142.24,2.62,2.62,0,0,1,43.58,144.87Z"/><path class="cls-7" d="M277.5,52.73a4.21,4.21,0,1,1-4.21-4.2A4.21,4.21,0,0,1,277.5,52.73Z"/><path class="cls-7" d="M284,71.91a2.63,2.63,0,1,1-2.63-2.63A2.62,2.62,0,0,1,284,71.91Z"/><path class="cls-7" d="M266.06,53.35a2,2,0,1,1-2-2A2,2,0,0,1,266.06,53.35Z"/><path class="cls-7" d="M296.91,250.46a4.2,4.2,0,1,1-4.2-4.2A4.21,4.21,0,0,1,296.91,250.46Z"/><path class="cls-7" d="M302,240.39a2,2,0,1,1-2-2A2,2,0,0,1,302,240.39Z"/></svg>