<svg id="Capa_1" data-name="Capa 1" xmlns="http://www.w3.org/2000/svg" viewBox="0 0 273.72 276.8"><defs><style>.cls-1{fill:#75872a;}.cls-2{fill:#93a223;}.cls-3{fill:#f8b174;}.cls-4{fill:#36140f;}.cls-5{fill:#f1a05b;}.cls-6{fill:#202e57;}.cls-7{fill:#141b30;}.cls-8{fill:#57b3e5;}.cls-9{fill:#6f6f6e;}.cls-10{fill:#8f8f8f;}</style></defs><title>224</title><path class="cls-1" d="M107.75,143.36s-5.67,24.7-8.55,29l20.88,9.54s7.29-10,8.9-17.09Z"/><path class="cls-2" d="M109.77,123.15A28.57,28.57,0,0,0,102,135.3c-2.63,8.63,5,15.88,12.2,20.68s17.6,25,17.6,25l23.41-11.79s-6.79-14.81-8.75-19.75-10-21.42-10-21.42Z"/><path class="cls-3" d="M148.05,17.89a8.86,8.86,0,0,1,2.55,4.74c.37,1.94,1.73,3,1,4.38s0,3.26,1.59,4.79c1.72,1.69,2.45,2.78.86,3.52s-1.36.6-1.24,1,.92,1,0,1.92c0,0,.83.77.19,1.52s-.89,1.06-.41,1.74,1.5,2.93-.48,3.95-6.29.44-6.76,1.1.35.69-1.59,3.32-.88,7-.88,7-11-1.38-16.28-7.55c0,0,2.18-5.06,1.57-6.42,0,0,2.44.47,2.14-.71,0,0,1.09-1.54.74-2.38,0,0,.51-2.16-.4-3.09a1.84,1.84,0,0,0-.32-1.62A4.44,4.44,0,0,1,129,32.62c-.2-1.21,5.15-5.82,5.32-6.34s1.18-1.59.76-2.22a1,1,0,0,1,.1-1.41C135.6,22.32,148.05,17.89,148.05,17.89Z"/><path class="cls-4" d="M128,44c.79-4.46-2.52-9.15-4.45-13s-2.26-13.81,5.8-16.2S146.57,14,147,10c0,0,3.71,5.46,1.41,8.65,0,0-9.8,4.31-9.31,14.52l-1.94.53s-.15-4.89-2.82-4.44-.79,3.15-.9,4.47-1.67,3.67,1.11,3.42c0,0,.83,2-3.3,5A14.63,14.63,0,0,1,128,44Z"/><path class="cls-5" d="M149.24,46.1a19.49,19.49,0,0,1-7.75-1.77,11.35,11.35,0,0,1-5-5.24s2.68,7.27,8.64,8.84a2.65,2.65,0,0,1,.21-1.35C145.61,46.16,147.43,46.24,149.24,46.1Z"/><path class="cls-6" d="M166.61,230.64c-1.25,1.55-5.55,3.91-7.82,3.62s-5.55-2.53-6-.84-1,6.33,0,8.66a1.83,1.83,0,0,0,0,1.84c.52,1.22,3.56,1.22,7.44.77s15.74-.79,18.88-2.1,5.94-2.93,6.21-4.5.85-4.92-2-4.16-6.28,1.08-7.87.38-4.95-1.76-6.37-2.88S167.12,230,166.61,230.64Z"/><path class="cls-7" d="M60.58,196c-.86-1.63-1.34-6.19-.26-8s4.18-3.85,2.89-4.85S58.16,180,55.77,180c0,0-.34-.68-1.57-.68s-2.34,2.61-3.36,6.11-5,13.79-5,17,.34,6.15,1.6,7,3.91,2.51,4.3-.21,1.35-5.79,2.53-6.9,3.3-3.6,4.78-4.42S60.93,196.69,60.58,196Z"/><path class="cls-3" d="M124.93,62.54c4.27-3.66,11.9-1.1,14.68,4.09s-.52,7,2.2,8.32,6.88,7.76,5,14.65a30.6,30.6,0,0,1,12-5.6c7.58-1.77,9.39-3.5,11.93-5.13s4.66-5.7,6.74-6.2,6.15-3,8-.55c3,4,1.65,7-1.61,9.27s-5.35,1.49-7.56,3.11-11.69,12.68-17,14.56-13.91,8.91-16.47,4.11-9.48-11.19-11-13.48-2.06-7.14-2.57-8.55S116.66,69.62,124.93,62.54Z"/><path class="cls-3" d="M125.74,160.82c1.39,2.85,1.19,8.79,8.65,17.88,2.08,2.54,5.66,5.08,4.64,12s1.71,12.24,7.9,22.38c6,9.88,5.47,12.18,6,15.8s1.86,11.47,1.86,11.47,8.89-1.3,10.62-2.17,3.38-5.35,3.38-5.35-5.47-9.55-6-13.9-6-27.18-5.42-30.16c1.43-7-1.65-13.91-5.21-21.42-4.43-9.36-1.85-5.24-1.85-5.24Z"/><path class="cls-3" d="M105.63,165.29c-2.55.64-1.55.8-3.34,4.75-1.13,2.47,1,10.22-5.06,9.31-5.73-.85-10.79-3.71-22.64,1.65-7.86,3.55-10.08,2.79-13.1,2.6a78.21,78.21,0,0,0-7.9.14s-2.19,9.08-1.78,10.63S55.57,198,55.57,198s8.92-4.38,12.53-4,30.32,1.05,32.78,1.55c6.58,1.36,8.82-1.92,12.56-5.76,6-6.13,7.68-14.87,7.68-14.87Z"/><path class="cls-1" d="M107.75,143.36s-5.67,24.7-8.55,29l20.88,9.54s7.29-10,8.9-17.09Z"/><path class="cls-2" d="M109.77,123.15A28.57,28.57,0,0,0,102,135.3c-2.63,8.63,5,15.88,12.2,20.68s17.6,25,17.6,25l23.41-11.79s-6.79-14.81-8.75-19.75-10-21.42-10-21.42Z"/><path class="cls-6" d="M127.12,47.93s3,3.5,15.53,7.72c0,0,9.56,10,6.38,27.17-2.49,13.48,3.18,24,.65,34.6A34.88,34.88,0,0,1,139.81,135s-18-7.06-30-11.81c0,0,4.15-8.83,3.42-16.14s-2.56-25.57-.55-36S123.15,50.41,127.12,47.93Z"/><path class="cls-3" d="M149.32,15.3a9.46,9.46,0,0,1,2.7,5c.4,2.06,1.84,3.17,1,4.65s0,3.47,1.68,5.09c1.83,1.8,2.61,3,.91,3.75s-1.44.63-1.31,1.09,1,1.09,0,2c0,0,.88.82.2,1.61s-.95,1.12-.44,1.85,1.6,3.11-.5,4.2-6.68.46-7.19,1.17.38.73-1.68,3.53-.94,7.39-.94,7.39-11.65-1.45-17.29-8c0,0,2.31-5.37,1.67-6.81,0,0,2.58.49,2.27-.76,0,0,1.16-1.64.78-2.53,0,0,.54-2.3-.43-3.29a2,2,0,0,0-.33-1.72A4.61,4.61,0,0,1,129.12,31c-.22-1.28,5.47-6.18,5.65-6.73s1.26-1.69.81-2.36a1,1,0,0,1,.1-1.5C136.09,20,149.32,15.3,149.32,15.3Z"/><path class="cls-4" d="M128.06,43c.84-4.73-2.68-9.72-4.73-13.76s-2.4-14.68,6.16-17.22,18.26-.92,18.72-5.14c0,0,3.94,5.8,1.5,9.2,0,0-10.41,4.57-9.9,15.42l-2.05.57s-.16-5.2-3-4.73c-2.69.44-.84,3.35-1,4.75S132,36,135,35.76c0,0,.87,2.16-3.52,5.31A15.8,15.8,0,0,1,128.06,43Z"/><path class="cls-5" d="M150.57,45.27a20.74,20.74,0,0,1-8.22-1.87A12.08,12.08,0,0,1,137,37.83s2.85,7.72,9.18,9.39a2.8,2.8,0,0,1,.22-1.43C146.73,45.34,148.65,45.42,150.57,45.27Z"/><path class="cls-3" d="M131,54.07c6.59,3.26,7.27,13.44,2.34,19.19s-5.22,6.65-7.55,8.58c-3,2.45-7.53,9.78-16.85,10.88,0,0,7.09,3.17,14.8,11.78,6.56,7.32,6.21,10.32,9.46,12.51s9.27,2.75,10.92,4.93,4,3.34,2.23,6.82c-1.6,3.1-4.25,5.25-8.63,2.5s-4.8-4.56-7.88-6.39-19.34-9-24.27-14.25-19.18-15-14.62-20.28,17.41-23.24,18.87-24.52S118.21,47.77,131,54.07Z"/><path class="cls-6" d="M166.61,230.64c-1.25,1.55-5.55,3.91-7.82,3.62s-5.55-2.53-6-.84-1,6.33,0,8.66a1.83,1.83,0,0,0,0,1.84c.52,1.22,3.56,1.22,7.44.77s15.74-.79,18.88-2.1,5.94-2.93,6.21-4.5.85-4.92-2-4.16-6.28,1.08-7.87.38-4.95-1.76-6.37-2.88S167.12,230,166.61,230.64Z"/><path class="cls-7" d="M60.58,196c-.86-1.63-1.34-6.19-.26-8s4.18-3.85,2.89-4.85S58.16,180,55.77,180c0,0-.34-.68-1.57-.68s-2.34,2.61-3.36,6.11-5,13.79-5,17,.34,6.15,1.6,7,3.91,2.51,4.3-.21,1.35-5.79,2.53-6.9,3.3-3.6,4.78-4.42S60.93,196.69,60.58,196Z"/><rect class="cls-8" x="109.72" y="253.59" width="83.28" height="8.91" rx="3.45" ry="3.45"/><path class="cls-8" d="M64.33,259a3.45,3.45,0,0,1-3.44,3.45H43.67A3.47,3.47,0,0,1,40.21,259v-5.45a3.46,3.46,0,0,1,3.46-3.44H60.89a3.45,3.45,0,0,1,3.44,3.44Z"/><rect class="cls-9" x="109.72" y="253.59" width="83.28" height="8.91" rx="3.45" ry="3.45"/><path class="cls-9" d="M64.33,259a3.45,3.45,0,0,1-3.44,3.45H43.67A3.47,3.47,0,0,1,40.21,259v-5.45a3.46,3.46,0,0,1,3.46-3.44H60.89a3.45,3.45,0,0,1,3.44,3.44Z"/><path class="cls-10" d="M198.62,244.54a8.68,8.68,0,0,1-8.37-6.43L159.13,121.79a8.67,8.67,0,0,1,6.13-10.62c4.63-1.23,6.69-.57,7.93,4l31.13,116.33c1.23,4.62,1.17,11.45-3.45,12.69A8.76,8.76,0,0,1,198.62,244.54Z"/><path class="cls-10" d="M210.8,250.15a3.45,3.45,0,0,1-3.45,3.44H28.73c-1.9,0-2.24-1-.74-2.14l8.37-6.63a11.59,11.59,0,0,1,6.15-2.15H207.35a3.46,3.46,0,0,1,3.45,3.45Z"/><path class="cls-7" d="M159.14,121a6,6,0,0,1-1.84-11.62c14-4.55,27.93-11.17,29.75-14.17,3.62-9.35,6.85-20.09,6.88-20.19a6,6,0,0,1,11.41,3.42c-.14.46-3.39,11.29-7.27,21.25-3.49,9-24.74,17-37.1,21A5.87,5.87,0,0,1,159.14,121Z"/><path class="cls-7" d="M207.35,242.67H42.51a11.59,11.59,0,0,0-6.15,2.15L28,251.45c-1.5,1.17-1.16,2.14.74,2.14h.9l6.73-5.33a11.58,11.58,0,0,1,6.15-2.14H207.35a3.45,3.45,0,0,1,3.45,3.44v-3.44A3.46,3.46,0,0,0,207.35,242.67Z"/><path class="cls-10" d="M240.08,259a3.45,3.45,0,0,1-3.44,3.45H180.35a2.7,2.7,0,0,1-2.74-3.37l6.14-29.72A4.43,4.43,0,0,1,187.9,226h48.74a3.45,3.45,0,0,1,3.44,3.44Z"/><path class="cls-8" d="M190.64,236.28a4.44,4.44,0,0,1,4.15-3.37h45.29v-3.45a3.45,3.45,0,0,0-3.44-3.44H187.9a4.43,4.43,0,0,0-4.15,3.38l-6.14,29.72a2.7,2.7,0,0,0,2.74,3.37h4.87Z"/></svg>