<svg width="36" height="22" viewBox="0 0 36 22" xmlns="http://www.w3.org/2000/svg"><path d="M18 4.714V19c0 .387-.137.722-.41 1.004-.275.283-.6.425-.975.425H1.385c-.375 0-.7-.144-.974-.427C.14 19.723 0 19.387 0 19V4.714c0-.387.137-.72.41-1.004.275-.283.6-.424.975-.424H2.77V2.214c0-.49.17-.91.508-1.26C3.618.604 4.024.43 4.5.43h.692c.476 0 .884.172 1.223.522.34.35.508.77.508 1.26v1.073h4.154v-1.07c0-.49.17-.91.508-1.26.34-.35.747-.526 1.223-.526h.692c.476 0 .883.172 1.222.522.34.35.51.77.51 1.26v1.073h1.383c.375 0 .7.14.974.424.272.282.41.616.41 1.003zM1.385 19H4.5v-3.214H1.385V19zm3.807 0h3.462v-3.214H5.192V19zm-3.807-3.93H4.5V11.5H1.385v3.57zm3.807 0h3.462V11.5H5.192v3.57zm-3.807-4.284H4.5V7.57H1.385v3.216zM9.345 19h3.463v-3.214H9.346V19zm-4.153-8.214h3.462V7.57H5.192v3.216zM13.5 19h3.115v-3.214H13.5V19zm-4.154-3.93h3.462V11.5H9.346v3.57zM5.538 5.43V2.213c0-.096-.034-.18-.102-.25-.07-.072-.15-.107-.244-.107H4.5c-.094 0-.175.035-.243.106-.07.07-.103.155-.103.25V5.43c0 .095.034.18.103.25.068.07.15.106.243.106h.692c.094 0 .175-.036.244-.106.068-.07.102-.155.102-.25zm7.962 9.64h3.115V11.5H13.5v3.57zm-4.154-4.284h3.462V7.57H9.346v3.216zm4.154 0h3.115V7.57H13.5v3.216zm.346-5.357V2.212c0-.096-.034-.18-.103-.25-.068-.072-.15-.107-.243-.107h-.692c-.094 0-.175.035-.244.106-.068.07-.102.155-.102.25V5.43c0 .095.034.18.102.25.07.07.15.106.244.106h.692c.094 0 .175-.036.243-.106.07-.07.103-.155.103-.25z" fill="rgba(102,114,121, 1)" fill-rule="evenodd"/></svg>