<svg id="Layer_35" enable-background="new 0 0 64 64" height="512" viewBox="0 0 64 64" width="512" xmlns="http://www.w3.org/2000/svg"><path d="m2 2h54v8h-54z" fill="#fcd770"/><path d="m2 10h54v34h-54z" fill="#e6e9ed"/><path d="m6 14v12 8h24v-8-12z" fill="#ef7385"/><path d="m36.1 45.52-.1.48v12c0 2.21-1.79 4-4 4h-20c-2.21 0-4-1.79-4-4v-14-2c0-2.21 1.79-4 4-4h22v4c0 1.52.85 2.84 2.1 3.52z" fill="#ffeaa7"/><path d="m62 26v16c0 2.21-1.79 4-4 4h-20c-.69 0-1.34-.18-1.9-.48-1.25-.68-2.1-2-2.1-3.52v-4-12c0-2.21 1.79-4 4-4h18 2c2.21 0 4 1.79 4 4z" fill="#b4dd7f"/><g fill="#fcd770"><path d="m54 26h4v16h-4z"/><path d="m46 34h4v8h-4z"/><path d="m38 30h4v12h-4z"/></g><path d="m5 5h2v2h-2z"/><path d="m9 5h2v2h-2z"/><path d="m13 5h2v2h-2z"/><path d="m58 21h-1v-20h-56v44h6v13c0 2.757 2.243 5 5 5h20c2.757 0 5-2.243 5-5v-11.101c.323.066.658.101 1 .101h20c2.757 0 5-2.243 5-5v-16c0-2.757-2.243-5-5-5zm-3-18v6h-52v-6zm-48 39v1h-4v-32h52v10h-17c-2.757 0-5 2.243-5 5v11h-21c-2.757 0-5 2.243-5 5zm28 4v12c0 1.654-1.346 3-3 3h-20c-1.654 0-3-1.346-3-3v-16c0-1.654 1.346-3 3-3h21v3c0 1.641.806 3.088 2.031 4zm26-4c0 1.654-1.346 3-3 3h-20c-1.654 0-3-1.346-3-3v-16c0-1.654 1.346-3 3-3h20c1.654 0 3 1.346 3 3z"/><path d="m14.72 49h14.56v2.001h-14.56z" transform="matrix(.275 -.962 .962 .275 -32.121 57.414)"/><path d="m25.293 44.707 5.293 5.293-5.293 5.293 1.414 1.414 6.707-6.707-6.707-6.707z"/><path d="m17.293 43.293-6.707 6.707 6.707 6.707 1.414-1.414-5.293-5.293 5.293-5.293z"/><path d="m53 41h-2v-8h-6v8h-2v-12h-6v14h22v-18h-6zm-12 0h-2v-10h2zm6-6h2v6h-2zm8-8h2v14h-2z"/><path d="m31 13h-26v22h26zm-2 20h-22v-18h22z"/><path d="m51 13h2v2h-2z"/><path d="m47 13h2v2h-2z"/><path d="m43 13h2v2h-2z"/><path d="m9 17h18v2h-18z"/><path d="m9 21h18v2h-18z"/><path d="m9 25h18v2h-18z"/><path d="m25 29h2v2h-2z"/><path d="m21 29h2v2h-2z"/><path d="m17 29h2v2h-2z"/><path d="m13 29h2v2h-2z"/></svg>